%TF.GenerationSoftware,KiCad,Pcbnew,(5.1.10)-1*%
%TF.CreationDate,2021-08-10T13:43:16-07:00*%
%TF.ProjectId,power-switch,706f7765-722d-4737-9769-7463682e6b69,rev?*%
%TF.SameCoordinates,Original*%
%TF.FileFunction,Legend,Top*%
%TF.FilePolarity,Positive*%
%FSLAX46Y46*%
G04 Gerber Fmt 4.6, Leading zero omitted, Abs format (unit mm)*
G04 Created by KiCad (PCBNEW (5.1.10)-1) date 2021-08-10 13:43:16*
%MOMM*%
%LPD*%
G01*
G04 APERTURE LIST*
%ADD10C,0.125000*%
%ADD11C,0.120000*%
G04 APERTURE END LIST*
D10*
X106967638Y-71233480D02*
X107039066Y-71257290D01*
X107158114Y-71257290D01*
X107205733Y-71233480D01*
X107229542Y-71209671D01*
X107253352Y-71162052D01*
X107253352Y-71114433D01*
X107229542Y-71066814D01*
X107205733Y-71043004D01*
X107158114Y-71019195D01*
X107062876Y-70995385D01*
X107015257Y-70971576D01*
X106991447Y-70947766D01*
X106967638Y-70900147D01*
X106967638Y-70852528D01*
X106991447Y-70804909D01*
X107015257Y-70781100D01*
X107062876Y-70757290D01*
X107181923Y-70757290D01*
X107253352Y-70781100D01*
X107467638Y-71257290D02*
X107467638Y-70757290D01*
X107753352Y-71257290D02*
X107539066Y-70971576D01*
X107753352Y-70757290D02*
X107467638Y-71043004D01*
X107967638Y-71066814D02*
X108348590Y-71066814D01*
X108848590Y-71257290D02*
X108562876Y-71257290D01*
X108705733Y-71257290D02*
X108705733Y-70757290D01*
X108658114Y-70828719D01*
X108610495Y-70876338D01*
X108562876Y-70900147D01*
X109015257Y-70757290D02*
X109324780Y-70757290D01*
X109158114Y-70947766D01*
X109229542Y-70947766D01*
X109277161Y-70971576D01*
X109300971Y-70995385D01*
X109324780Y-71043004D01*
X109324780Y-71162052D01*
X109300971Y-71209671D01*
X109277161Y-71233480D01*
X109229542Y-71257290D01*
X109086685Y-71257290D01*
X109039066Y-71233480D01*
X109015257Y-71209671D01*
X109562876Y-71257290D02*
X109658114Y-71257290D01*
X109705733Y-71233480D01*
X109729542Y-71209671D01*
X109777161Y-71138242D01*
X109800971Y-71043004D01*
X109800971Y-70852528D01*
X109777161Y-70804909D01*
X109753352Y-70781100D01*
X109705733Y-70757290D01*
X109610495Y-70757290D01*
X109562876Y-70781100D01*
X109539066Y-70804909D01*
X109515257Y-70852528D01*
X109515257Y-70971576D01*
X109539066Y-71019195D01*
X109562876Y-71043004D01*
X109610495Y-71066814D01*
X109705733Y-71066814D01*
X109753352Y-71043004D01*
X109777161Y-71019195D01*
X109800971Y-70971576D01*
X110277161Y-71257290D02*
X109991447Y-71257290D01*
X110134304Y-71257290D02*
X110134304Y-70757290D01*
X110086685Y-70828719D01*
X110039066Y-70876338D01*
X109991447Y-70900147D01*
X110729542Y-71257290D02*
X110491447Y-71257290D01*
X110491447Y-70757290D01*
X110896209Y-71066814D02*
X111277161Y-71066814D01*
X111491447Y-70804909D02*
X111515257Y-70781100D01*
X111562876Y-70757290D01*
X111681923Y-70757290D01*
X111729542Y-70781100D01*
X111753352Y-70804909D01*
X111777161Y-70852528D01*
X111777161Y-70900147D01*
X111753352Y-70971576D01*
X111467638Y-71257290D01*
X111777161Y-71257290D01*
X105409180Y-71208757D02*
X105432990Y-71137328D01*
X105432990Y-71018280D01*
X105409180Y-70970661D01*
X105385371Y-70946852D01*
X105337752Y-70923042D01*
X105290133Y-70923042D01*
X105242514Y-70946852D01*
X105218704Y-70970661D01*
X105194895Y-71018280D01*
X105171085Y-71113519D01*
X105147276Y-71161138D01*
X105123466Y-71184947D01*
X105075847Y-71208757D01*
X105028228Y-71208757D01*
X104980609Y-71184947D01*
X104956800Y-71161138D01*
X104932990Y-71113519D01*
X104932990Y-70994471D01*
X104956800Y-70923042D01*
X104932990Y-70756376D02*
X105432990Y-70637328D01*
X105075847Y-70542090D01*
X105432990Y-70446852D01*
X104932990Y-70327804D01*
X104932990Y-69661138D02*
X104932990Y-69565900D01*
X104956800Y-69518280D01*
X105004419Y-69470661D01*
X105099657Y-69446852D01*
X105266323Y-69446852D01*
X105361561Y-69470661D01*
X105409180Y-69518280D01*
X105432990Y-69565900D01*
X105432990Y-69661138D01*
X105409180Y-69708757D01*
X105361561Y-69756376D01*
X105266323Y-69780185D01*
X105099657Y-69780185D01*
X105004419Y-69756376D01*
X104956800Y-69708757D01*
X104932990Y-69661138D01*
X105432990Y-69232566D02*
X104932990Y-69232566D01*
X105432990Y-68946852D01*
X104932990Y-68946852D01*
X108274752Y-69811080D02*
X108346180Y-69834890D01*
X108465228Y-69834890D01*
X108512847Y-69811080D01*
X108536657Y-69787271D01*
X108560466Y-69739652D01*
X108560466Y-69692033D01*
X108536657Y-69644414D01*
X108512847Y-69620604D01*
X108465228Y-69596795D01*
X108369990Y-69572985D01*
X108322371Y-69549176D01*
X108298561Y-69525366D01*
X108274752Y-69477747D01*
X108274752Y-69430128D01*
X108298561Y-69382509D01*
X108322371Y-69358700D01*
X108369990Y-69334890D01*
X108489038Y-69334890D01*
X108560466Y-69358700D01*
X108727133Y-69334890D02*
X108846180Y-69834890D01*
X108941419Y-69477747D01*
X109036657Y-69834890D01*
X109155704Y-69334890D01*
X110012847Y-69787271D02*
X109989038Y-69811080D01*
X109917609Y-69834890D01*
X109869990Y-69834890D01*
X109798561Y-69811080D01*
X109750942Y-69763461D01*
X109727133Y-69715842D01*
X109703323Y-69620604D01*
X109703323Y-69549176D01*
X109727133Y-69453938D01*
X109750942Y-69406319D01*
X109798561Y-69358700D01*
X109869990Y-69334890D01*
X109917609Y-69334890D01*
X109989038Y-69358700D01*
X110012847Y-69382509D01*
X115580290Y-70592795D02*
X115080290Y-70592795D01*
X115080290Y-70402319D01*
X115104100Y-70354700D01*
X115127909Y-70330890D01*
X115175528Y-70307080D01*
X115246957Y-70307080D01*
X115294576Y-70330890D01*
X115318385Y-70354700D01*
X115342195Y-70402319D01*
X115342195Y-70592795D01*
X115080290Y-70140414D02*
X115580290Y-70021366D01*
X115223147Y-69926128D01*
X115580290Y-69830890D01*
X115080290Y-69711842D01*
X115580290Y-69235652D02*
X115342195Y-69402319D01*
X115580290Y-69521366D02*
X115080290Y-69521366D01*
X115080290Y-69330890D01*
X115104100Y-69283271D01*
X115127909Y-69259461D01*
X115175528Y-69235652D01*
X115246957Y-69235652D01*
X115294576Y-69259461D01*
X115318385Y-69283271D01*
X115342195Y-69330890D01*
X115342195Y-69521366D01*
X115580290Y-68640414D02*
X115080290Y-68640414D01*
X115580290Y-68402319D02*
X115080290Y-68402319D01*
X115580290Y-68116604D01*
X115080290Y-68116604D01*
X103116890Y-69115785D02*
X103188319Y-69139595D01*
X103212128Y-69163404D01*
X103235938Y-69211023D01*
X103235938Y-69282452D01*
X103212128Y-69330071D01*
X103188319Y-69353880D01*
X103140700Y-69377690D01*
X102950223Y-69377690D01*
X102950223Y-68877690D01*
X103116890Y-68877690D01*
X103164509Y-68901500D01*
X103188319Y-68925309D01*
X103212128Y-68972928D01*
X103212128Y-69020547D01*
X103188319Y-69068166D01*
X103164509Y-69091976D01*
X103116890Y-69115785D01*
X102950223Y-69115785D01*
X103450223Y-69187214D02*
X103831176Y-69187214D01*
X103640700Y-69377690D02*
X103640700Y-68996738D01*
D11*
%TO.C,REF\u002A\u002A*%
X102450000Y-68550000D02*
X102450000Y-66650000D01*
X104350000Y-68550000D02*
X102450000Y-68550000D01*
X104350000Y-66650000D02*
X104350000Y-68550000D01*
X102450000Y-66650000D02*
X104350000Y-66650000D01*
X114450000Y-67750000D02*
X114450000Y-65850000D01*
X116350000Y-67750000D02*
X114450000Y-67750000D01*
X116350000Y-65850000D02*
X116350000Y-67750000D01*
X114450000Y-65850000D02*
X116350000Y-65850000D01*
%TD*%
M02*
