%TF.GenerationSoftware,KiCad,Pcbnew,(5.1.10)-1*%
%TF.CreationDate,2021-08-10T13:43:16-07:00*%
%TF.ProjectId,power-switch,706f7765-722d-4737-9769-7463682e6b69,rev?*%
%TF.SameCoordinates,Original*%
%TF.FileFunction,Soldermask,Top*%
%TF.FilePolarity,Negative*%
%FSLAX46Y46*%
G04 Gerber Fmt 4.6, Leading zero omitted, Abs format (unit mm)*
G04 Created by KiCad (PCBNEW (5.1.10)-1) date 2021-08-10 13:43:16*
%MOMM*%
%LPD*%
G01*
G04 APERTURE LIST*
%ADD10O,1.100000X4.100000*%
%ADD11C,1.624000*%
%ADD12C,0.900000*%
G04 APERTURE END LIST*
%TO.C,REF\u002A\u002A*%
G36*
G01*
X108420000Y-68047300D02*
X108420000Y-66547300D01*
G75*
G02*
X108470000Y-66497300I50000J0D01*
G01*
X109970000Y-66497300D01*
G75*
G02*
X110020000Y-66547300I0J-50000D01*
G01*
X110020000Y-68047300D01*
G75*
G02*
X109970000Y-68097300I-50000J0D01*
G01*
X108470000Y-68097300D01*
G75*
G02*
X108420000Y-68047300I0J50000D01*
G01*
G37*
%TD*%
%TO.C,REF\u002A\u002A*%
G36*
G01*
X104737000Y-68047300D02*
X104737000Y-66547300D01*
G75*
G02*
X104787000Y-66497300I50000J0D01*
G01*
X106287000Y-66497300D01*
G75*
G02*
X106337000Y-66547300I0J-50000D01*
G01*
X106337000Y-68047300D01*
G75*
G02*
X106287000Y-68097300I-50000J0D01*
G01*
X104787000Y-68097300D01*
G75*
G02*
X104737000Y-68047300I0J50000D01*
G01*
G37*
%TD*%
%TO.C,REF\u002A\u002A*%
G36*
G01*
X102600000Y-68350000D02*
X102600000Y-66850000D01*
G75*
G02*
X102650000Y-66800000I50000J0D01*
G01*
X104150000Y-66800000D01*
G75*
G02*
X104200000Y-66850000I0J-50000D01*
G01*
X104200000Y-68350000D01*
G75*
G02*
X104150000Y-68400000I-50000J0D01*
G01*
X102650000Y-68400000D01*
G75*
G02*
X102600000Y-68350000I0J50000D01*
G01*
G37*
%TD*%
%TO.C,REF\u002A\u002A*%
G36*
G01*
X114600000Y-67550000D02*
X114600000Y-66050000D01*
G75*
G02*
X114650000Y-66000000I50000J0D01*
G01*
X116150000Y-66000000D01*
G75*
G02*
X116200000Y-66050000I0J-50000D01*
G01*
X116200000Y-67550000D01*
G75*
G02*
X116150000Y-67600000I-50000J0D01*
G01*
X114650000Y-67600000D01*
G75*
G02*
X114600000Y-67550000I0J50000D01*
G01*
G37*
%TD*%
D10*
%TO.C,Ref\u002A\u002A*%
X101600000Y-69950000D03*
X116800000Y-69950000D03*
D11*
X99250000Y-66425000D03*
X103300000Y-65625000D03*
X117450000Y-66050000D03*
%TD*%
D12*
%TO.C,REF\u002A\u002A*%
X112200000Y-69800000D03*
X106200000Y-69800000D03*
G36*
G01*
X112750000Y-68550000D02*
X112750000Y-66550000D01*
G75*
G02*
X112800000Y-66500000I50000J0D01*
G01*
X113600000Y-66500000D01*
G75*
G02*
X113650000Y-66550000I0J-50000D01*
G01*
X113650000Y-68550000D01*
G75*
G02*
X113600000Y-68600000I-50000J0D01*
G01*
X112800000Y-68600000D01*
G75*
G02*
X112750000Y-68550000I0J50000D01*
G01*
G37*
G36*
G01*
X109750000Y-68550000D02*
X109750000Y-66550000D01*
G75*
G02*
X109800000Y-66500000I50000J0D01*
G01*
X110600000Y-66500000D01*
G75*
G02*
X110650000Y-66550000I0J-50000D01*
G01*
X110650000Y-68550000D01*
G75*
G02*
X110600000Y-68600000I-50000J0D01*
G01*
X109800000Y-68600000D01*
G75*
G02*
X109750000Y-68550000I0J50000D01*
G01*
G37*
G36*
G01*
X107750000Y-68550000D02*
X107750000Y-66550000D01*
G75*
G02*
X107800000Y-66500000I50000J0D01*
G01*
X108600000Y-66500000D01*
G75*
G02*
X108650000Y-66550000I0J-50000D01*
G01*
X108650000Y-68550000D01*
G75*
G02*
X108600000Y-68600000I-50000J0D01*
G01*
X107800000Y-68600000D01*
G75*
G02*
X107750000Y-68550000I0J50000D01*
G01*
G37*
G36*
G01*
X104750000Y-68550000D02*
X104750000Y-66550000D01*
G75*
G02*
X104800000Y-66500000I50000J0D01*
G01*
X105600000Y-66500000D01*
G75*
G02*
X105650000Y-66550000I0J-50000D01*
G01*
X105650000Y-68550000D01*
G75*
G02*
X105600000Y-68600000I-50000J0D01*
G01*
X104800000Y-68600000D01*
G75*
G02*
X104750000Y-68550000I0J50000D01*
G01*
G37*
%TD*%
M02*
