%TF.GenerationSoftware,KiCad,Pcbnew,(5.1.10)-1*%
%TF.CreationDate,2021-08-10T13:43:16-07:00*%
%TF.ProjectId,power-switch,706f7765-722d-4737-9769-7463682e6b69,rev?*%
%TF.SameCoordinates,Original*%
%TF.FileFunction,Legend,Bot*%
%TF.FilePolarity,Positive*%
%FSLAX46Y46*%
G04 Gerber Fmt 4.6, Leading zero omitted, Abs format (unit mm)*
G04 Created by KiCad (PCBNEW (5.1.10)-1) date 2021-08-10 13:43:16*
%MOMM*%
%LPD*%
G01*
G04 APERTURE LIST*
%ADD10C,0.125000*%
G04 APERTURE END LIST*
D10*
X111969109Y-67067590D02*
X111969109Y-66567590D01*
X111754823Y-67067590D02*
X111754823Y-66805685D01*
X111778633Y-66758066D01*
X111826252Y-66734257D01*
X111897680Y-66734257D01*
X111945300Y-66758066D01*
X111969109Y-66781876D01*
X111588157Y-66734257D02*
X111397680Y-66734257D01*
X111516728Y-66567590D02*
X111516728Y-66996161D01*
X111492919Y-67043780D01*
X111445300Y-67067590D01*
X111397680Y-67067590D01*
X111302442Y-66734257D02*
X111111966Y-66734257D01*
X111231014Y-66567590D02*
X111231014Y-66996161D01*
X111207204Y-67043780D01*
X111159585Y-67067590D01*
X111111966Y-67067590D01*
X110945300Y-66734257D02*
X110945300Y-67234257D01*
X110945300Y-66758066D02*
X110897680Y-66734257D01*
X110802442Y-66734257D01*
X110754823Y-66758066D01*
X110731014Y-66781876D01*
X110707204Y-66829495D01*
X110707204Y-66972352D01*
X110731014Y-67019971D01*
X110754823Y-67043780D01*
X110802442Y-67067590D01*
X110897680Y-67067590D01*
X110945300Y-67043780D01*
X110516728Y-67043780D02*
X110469109Y-67067590D01*
X110373871Y-67067590D01*
X110326252Y-67043780D01*
X110302442Y-66996161D01*
X110302442Y-66972352D01*
X110326252Y-66924733D01*
X110373871Y-66900923D01*
X110445300Y-66900923D01*
X110492919Y-66877114D01*
X110516728Y-66829495D01*
X110516728Y-66805685D01*
X110492919Y-66758066D01*
X110445300Y-66734257D01*
X110373871Y-66734257D01*
X110326252Y-66758066D01*
X110088157Y-67019971D02*
X110064347Y-67043780D01*
X110088157Y-67067590D01*
X110111966Y-67043780D01*
X110088157Y-67019971D01*
X110088157Y-67067590D01*
X110088157Y-66758066D02*
X110064347Y-66781876D01*
X110088157Y-66805685D01*
X110111966Y-66781876D01*
X110088157Y-66758066D01*
X110088157Y-66805685D01*
X109492919Y-66543780D02*
X109921490Y-67186638D01*
X108969109Y-66543780D02*
X109397680Y-67186638D01*
X108588157Y-66734257D02*
X108588157Y-67139019D01*
X108611966Y-67186638D01*
X108635776Y-67210447D01*
X108683395Y-67234257D01*
X108754823Y-67234257D01*
X108802442Y-67210447D01*
X108588157Y-67043780D02*
X108635776Y-67067590D01*
X108731014Y-67067590D01*
X108778633Y-67043780D01*
X108802442Y-67019971D01*
X108826252Y-66972352D01*
X108826252Y-66829495D01*
X108802442Y-66781876D01*
X108778633Y-66758066D01*
X108731014Y-66734257D01*
X108635776Y-66734257D01*
X108588157Y-66758066D01*
X108350061Y-67067590D02*
X108350061Y-66734257D01*
X108350061Y-66567590D02*
X108373871Y-66591400D01*
X108350061Y-66615209D01*
X108326252Y-66591400D01*
X108350061Y-66567590D01*
X108350061Y-66615209D01*
X108183395Y-66734257D02*
X107992919Y-66734257D01*
X108111966Y-66567590D02*
X108111966Y-66996161D01*
X108088157Y-67043780D01*
X108040538Y-67067590D01*
X107992919Y-67067590D01*
X107826252Y-67067590D02*
X107826252Y-66567590D01*
X107611966Y-67067590D02*
X107611966Y-66805685D01*
X107635776Y-66758066D01*
X107683395Y-66734257D01*
X107754823Y-66734257D01*
X107802442Y-66758066D01*
X107826252Y-66781876D01*
X107159585Y-66734257D02*
X107159585Y-67067590D01*
X107373871Y-66734257D02*
X107373871Y-66996161D01*
X107350061Y-67043780D01*
X107302442Y-67067590D01*
X107231014Y-67067590D01*
X107183395Y-67043780D01*
X107159585Y-67019971D01*
X106921490Y-67067590D02*
X106921490Y-66567590D01*
X106921490Y-66758066D02*
X106873871Y-66734257D01*
X106778633Y-66734257D01*
X106731014Y-66758066D01*
X106707204Y-66781876D01*
X106683395Y-66829495D01*
X106683395Y-66972352D01*
X106707204Y-67019971D01*
X106731014Y-67043780D01*
X106778633Y-67067590D01*
X106873871Y-67067590D01*
X106921490Y-67043780D01*
X106469109Y-67019971D02*
X106445300Y-67043780D01*
X106469109Y-67067590D01*
X106492919Y-67043780D01*
X106469109Y-67019971D01*
X106469109Y-67067590D01*
X106016728Y-67043780D02*
X106064347Y-67067590D01*
X106159585Y-67067590D01*
X106207204Y-67043780D01*
X106231014Y-67019971D01*
X106254823Y-66972352D01*
X106254823Y-66829495D01*
X106231014Y-66781876D01*
X106207204Y-66758066D01*
X106159585Y-66734257D01*
X106064347Y-66734257D01*
X106016728Y-66758066D01*
X105731014Y-67067590D02*
X105778633Y-67043780D01*
X105802442Y-67019971D01*
X105826252Y-66972352D01*
X105826252Y-66829495D01*
X105802442Y-66781876D01*
X105778633Y-66758066D01*
X105731014Y-66734257D01*
X105659585Y-66734257D01*
X105611966Y-66758066D01*
X105588157Y-66781876D01*
X105564347Y-66829495D01*
X105564347Y-66972352D01*
X105588157Y-67019971D01*
X105611966Y-67043780D01*
X105659585Y-67067590D01*
X105731014Y-67067590D01*
X105350061Y-67067590D02*
X105350061Y-66734257D01*
X105350061Y-66781876D02*
X105326252Y-66758066D01*
X105278633Y-66734257D01*
X105207204Y-66734257D01*
X105159585Y-66758066D01*
X105135776Y-66805685D01*
X105135776Y-67067590D01*
X105135776Y-66805685D02*
X105111966Y-66758066D01*
X105064347Y-66734257D01*
X104992919Y-66734257D01*
X104945300Y-66758066D01*
X104921490Y-66805685D01*
X104921490Y-67067590D01*
X111147680Y-67418780D02*
X111576252Y-68061638D01*
X110981014Y-67942590D02*
X110981014Y-67609257D01*
X110981014Y-67656876D02*
X110957204Y-67633066D01*
X110909585Y-67609257D01*
X110838157Y-67609257D01*
X110790538Y-67633066D01*
X110766728Y-67680685D01*
X110766728Y-67942590D01*
X110766728Y-67680685D02*
X110742919Y-67633066D01*
X110695300Y-67609257D01*
X110623871Y-67609257D01*
X110576252Y-67633066D01*
X110552442Y-67680685D01*
X110552442Y-67942590D01*
X110100061Y-67942590D02*
X110100061Y-67680685D01*
X110123871Y-67633066D01*
X110171490Y-67609257D01*
X110266728Y-67609257D01*
X110314347Y-67633066D01*
X110100061Y-67918780D02*
X110147680Y-67942590D01*
X110266728Y-67942590D01*
X110314347Y-67918780D01*
X110338157Y-67871161D01*
X110338157Y-67823542D01*
X110314347Y-67775923D01*
X110266728Y-67752114D01*
X110147680Y-67752114D01*
X110100061Y-67728304D01*
X109861966Y-67942590D02*
X109861966Y-67442590D01*
X109814347Y-67752114D02*
X109671490Y-67942590D01*
X109671490Y-67609257D02*
X109861966Y-67799733D01*
X109457204Y-67942590D02*
X109457204Y-67442590D01*
X109242919Y-67942590D02*
X109242919Y-67680685D01*
X109266728Y-67633066D01*
X109314347Y-67609257D01*
X109385776Y-67609257D01*
X109433395Y-67633066D01*
X109457204Y-67656876D01*
X108933395Y-67942590D02*
X108981014Y-67918780D01*
X109004823Y-67894971D01*
X109028633Y-67847352D01*
X109028633Y-67704495D01*
X109004823Y-67656876D01*
X108981014Y-67633066D01*
X108933395Y-67609257D01*
X108861966Y-67609257D01*
X108814347Y-67633066D01*
X108790538Y-67656876D01*
X108766728Y-67704495D01*
X108766728Y-67847352D01*
X108790538Y-67894971D01*
X108814347Y-67918780D01*
X108861966Y-67942590D01*
X108933395Y-67942590D01*
X108600061Y-67609257D02*
X108504823Y-67942590D01*
X108409585Y-67704495D01*
X108314347Y-67942590D01*
X108219109Y-67609257D01*
X107814347Y-67942590D02*
X107814347Y-67680685D01*
X107838157Y-67633066D01*
X107885776Y-67609257D01*
X107981014Y-67609257D01*
X108028633Y-67633066D01*
X107814347Y-67918780D02*
X107861966Y-67942590D01*
X107981014Y-67942590D01*
X108028633Y-67918780D01*
X108052442Y-67871161D01*
X108052442Y-67823542D01*
X108028633Y-67775923D01*
X107981014Y-67752114D01*
X107861966Y-67752114D01*
X107814347Y-67728304D01*
X107600061Y-67918780D02*
X107552442Y-67942590D01*
X107457204Y-67942590D01*
X107409585Y-67918780D01*
X107385776Y-67871161D01*
X107385776Y-67847352D01*
X107409585Y-67799733D01*
X107457204Y-67775923D01*
X107528633Y-67775923D01*
X107576252Y-67752114D01*
X107600061Y-67704495D01*
X107600061Y-67680685D01*
X107576252Y-67633066D01*
X107528633Y-67609257D01*
X107457204Y-67609257D01*
X107409585Y-67633066D01*
X107242919Y-67609257D02*
X107052442Y-67609257D01*
X107171490Y-67442590D02*
X107171490Y-67871161D01*
X107147680Y-67918780D01*
X107100061Y-67942590D01*
X107052442Y-67942590D01*
X106671490Y-67942590D02*
X106671490Y-67680685D01*
X106695300Y-67633066D01*
X106742919Y-67609257D01*
X106838157Y-67609257D01*
X106885776Y-67633066D01*
X106671490Y-67918780D02*
X106719109Y-67942590D01*
X106838157Y-67942590D01*
X106885776Y-67918780D01*
X106909585Y-67871161D01*
X106909585Y-67823542D01*
X106885776Y-67775923D01*
X106838157Y-67752114D01*
X106719109Y-67752114D01*
X106671490Y-67728304D01*
X106433395Y-67942590D02*
X106433395Y-67442590D01*
X106385776Y-67752114D02*
X106242919Y-67942590D01*
X106242919Y-67609257D02*
X106433395Y-67799733D01*
X105838157Y-67918780D02*
X105885776Y-67942590D01*
X105981014Y-67942590D01*
X106028633Y-67918780D01*
X106052442Y-67871161D01*
X106052442Y-67680685D01*
X106028633Y-67633066D01*
X105981014Y-67609257D01*
X105885776Y-67609257D01*
X105838157Y-67633066D01*
X105814347Y-67680685D01*
X105814347Y-67728304D01*
X106052442Y-67775923D01*
X105600061Y-67609257D02*
X105600061Y-67942590D01*
X105600061Y-67656876D02*
X105576252Y-67633066D01*
X105528633Y-67609257D01*
X105457204Y-67609257D01*
X105409585Y-67633066D01*
X105385776Y-67680685D01*
X105385776Y-67942590D01*
X113814347Y-68293780D02*
X114242919Y-68936638D01*
X113671490Y-68793780D02*
X113600061Y-68817590D01*
X113481014Y-68817590D01*
X113433395Y-68793780D01*
X113409585Y-68769971D01*
X113385776Y-68722352D01*
X113385776Y-68674733D01*
X113409585Y-68627114D01*
X113433395Y-68603304D01*
X113481014Y-68579495D01*
X113576252Y-68555685D01*
X113623871Y-68531876D01*
X113647680Y-68508066D01*
X113671490Y-68460447D01*
X113671490Y-68412828D01*
X113647680Y-68365209D01*
X113623871Y-68341400D01*
X113576252Y-68317590D01*
X113457204Y-68317590D01*
X113385776Y-68341400D01*
X113100061Y-68817590D02*
X113147680Y-68793780D01*
X113171490Y-68769971D01*
X113195300Y-68722352D01*
X113195300Y-68579495D01*
X113171490Y-68531876D01*
X113147680Y-68508066D01*
X113100061Y-68484257D01*
X113028633Y-68484257D01*
X112981014Y-68508066D01*
X112957204Y-68531876D01*
X112933395Y-68579495D01*
X112933395Y-68722352D01*
X112957204Y-68769971D01*
X112981014Y-68793780D01*
X113028633Y-68817590D01*
X113100061Y-68817590D01*
X112790538Y-68484257D02*
X112600061Y-68484257D01*
X112719109Y-68817590D02*
X112719109Y-68389019D01*
X112695300Y-68341400D01*
X112647680Y-68317590D01*
X112600061Y-68317590D01*
X112504823Y-68484257D02*
X112314347Y-68484257D01*
X112433395Y-68317590D02*
X112433395Y-68746161D01*
X112409585Y-68793780D01*
X112361966Y-68817590D01*
X112314347Y-68817590D01*
X112147680Y-68627114D02*
X111766728Y-68627114D01*
X111290538Y-68817590D02*
X111528633Y-68817590D01*
X111528633Y-68317590D01*
X110909585Y-68817590D02*
X110909585Y-68555685D01*
X110933395Y-68508066D01*
X110981014Y-68484257D01*
X111076252Y-68484257D01*
X111123871Y-68508066D01*
X110909585Y-68793780D02*
X110957204Y-68817590D01*
X111076252Y-68817590D01*
X111123871Y-68793780D01*
X111147680Y-68746161D01*
X111147680Y-68698542D01*
X111123871Y-68650923D01*
X111076252Y-68627114D01*
X110957204Y-68627114D01*
X110909585Y-68603304D01*
X110742919Y-68484257D02*
X110552442Y-68484257D01*
X110671490Y-68317590D02*
X110671490Y-68746161D01*
X110647680Y-68793780D01*
X110600061Y-68817590D01*
X110552442Y-68817590D01*
X110171490Y-68793780D02*
X110219109Y-68817590D01*
X110314347Y-68817590D01*
X110361966Y-68793780D01*
X110385776Y-68769971D01*
X110409585Y-68722352D01*
X110409585Y-68579495D01*
X110385776Y-68531876D01*
X110361966Y-68508066D01*
X110314347Y-68484257D01*
X110219109Y-68484257D01*
X110171490Y-68508066D01*
X109957204Y-68817590D02*
X109957204Y-68317590D01*
X109742919Y-68817590D02*
X109742919Y-68555685D01*
X109766728Y-68508066D01*
X109814347Y-68484257D01*
X109885776Y-68484257D01*
X109933395Y-68508066D01*
X109957204Y-68531876D01*
X109504823Y-68817590D02*
X109504823Y-68484257D01*
X109504823Y-68317590D02*
X109528633Y-68341400D01*
X109504823Y-68365209D01*
X109481014Y-68341400D01*
X109504823Y-68317590D01*
X109504823Y-68365209D01*
X109266728Y-68484257D02*
X109266728Y-68817590D01*
X109266728Y-68531876D02*
X109242919Y-68508066D01*
X109195300Y-68484257D01*
X109123871Y-68484257D01*
X109076252Y-68508066D01*
X109052442Y-68555685D01*
X109052442Y-68817590D01*
X108600061Y-68484257D02*
X108600061Y-68889019D01*
X108623871Y-68936638D01*
X108647680Y-68960447D01*
X108695300Y-68984257D01*
X108766728Y-68984257D01*
X108814347Y-68960447D01*
X108600061Y-68793780D02*
X108647680Y-68817590D01*
X108742919Y-68817590D01*
X108790538Y-68793780D01*
X108814347Y-68769971D01*
X108838157Y-68722352D01*
X108838157Y-68579495D01*
X108814347Y-68531876D01*
X108790538Y-68508066D01*
X108742919Y-68484257D01*
X108647680Y-68484257D01*
X108600061Y-68508066D01*
X108361966Y-68627114D02*
X107981014Y-68627114D01*
X107742919Y-68817590D02*
X107742919Y-68317590D01*
X107552442Y-68317590D01*
X107504823Y-68341400D01*
X107481014Y-68365209D01*
X107457204Y-68412828D01*
X107457204Y-68484257D01*
X107481014Y-68531876D01*
X107504823Y-68555685D01*
X107552442Y-68579495D01*
X107742919Y-68579495D01*
X107171490Y-68817590D02*
X107219109Y-68793780D01*
X107242919Y-68769971D01*
X107266728Y-68722352D01*
X107266728Y-68579495D01*
X107242919Y-68531876D01*
X107219109Y-68508066D01*
X107171490Y-68484257D01*
X107100061Y-68484257D01*
X107052442Y-68508066D01*
X107028633Y-68531876D01*
X107004823Y-68579495D01*
X107004823Y-68722352D01*
X107028633Y-68769971D01*
X107052442Y-68793780D01*
X107100061Y-68817590D01*
X107171490Y-68817590D01*
X106838157Y-68484257D02*
X106742919Y-68817590D01*
X106647680Y-68579495D01*
X106552442Y-68817590D01*
X106457204Y-68484257D01*
X106076252Y-68793780D02*
X106123871Y-68817590D01*
X106219109Y-68817590D01*
X106266728Y-68793780D01*
X106290538Y-68746161D01*
X106290538Y-68555685D01*
X106266728Y-68508066D01*
X106219109Y-68484257D01*
X106123871Y-68484257D01*
X106076252Y-68508066D01*
X106052442Y-68555685D01*
X106052442Y-68603304D01*
X106290538Y-68650923D01*
X105838157Y-68817590D02*
X105838157Y-68484257D01*
X105838157Y-68579495D02*
X105814347Y-68531876D01*
X105790538Y-68508066D01*
X105742919Y-68484257D01*
X105695300Y-68484257D01*
X105528633Y-68627114D02*
X105147680Y-68627114D01*
X104742919Y-68555685D02*
X104671490Y-68579495D01*
X104647680Y-68603304D01*
X104623871Y-68650923D01*
X104623871Y-68722352D01*
X104647680Y-68769971D01*
X104671490Y-68793780D01*
X104719109Y-68817590D01*
X104909585Y-68817590D01*
X104909585Y-68317590D01*
X104742919Y-68317590D01*
X104695300Y-68341400D01*
X104671490Y-68365209D01*
X104647680Y-68412828D01*
X104647680Y-68460447D01*
X104671490Y-68508066D01*
X104695300Y-68531876D01*
X104742919Y-68555685D01*
X104909585Y-68555685D01*
X104195300Y-68484257D02*
X104195300Y-68817590D01*
X104409585Y-68484257D02*
X104409585Y-68746161D01*
X104385776Y-68793780D01*
X104338157Y-68817590D01*
X104266728Y-68817590D01*
X104219109Y-68793780D01*
X104195300Y-68769971D01*
X104028633Y-68484257D02*
X103838157Y-68484257D01*
X103957204Y-68317590D02*
X103957204Y-68746161D01*
X103933395Y-68793780D01*
X103885776Y-68817590D01*
X103838157Y-68817590D01*
X103742919Y-68484257D02*
X103552442Y-68484257D01*
X103671490Y-68317590D02*
X103671490Y-68746161D01*
X103647680Y-68793780D01*
X103600061Y-68817590D01*
X103552442Y-68817590D01*
X103314347Y-68817590D02*
X103361966Y-68793780D01*
X103385776Y-68769971D01*
X103409585Y-68722352D01*
X103409585Y-68579495D01*
X103385776Y-68531876D01*
X103361966Y-68508066D01*
X103314347Y-68484257D01*
X103242919Y-68484257D01*
X103195300Y-68508066D01*
X103171490Y-68531876D01*
X103147680Y-68579495D01*
X103147680Y-68722352D01*
X103171490Y-68769971D01*
X103195300Y-68793780D01*
X103242919Y-68817590D01*
X103314347Y-68817590D01*
X102933395Y-68484257D02*
X102933395Y-68817590D01*
X102933395Y-68531876D02*
X102909585Y-68508066D01*
X102861966Y-68484257D01*
X102790538Y-68484257D01*
X102742919Y-68508066D01*
X102719109Y-68555685D01*
X102719109Y-68817590D01*
M02*
