G04 #@! TF.GenerationSoftware,KiCad,Pcbnew,(5.1.6)-1*
G04 #@! TF.CreationDate,2020-08-20T16:01:08-07:00*
G04 #@! TF.ProjectId,Momentary-Power-Toggle,4d6f6d65-6e74-4617-9279-2d506f776572,rev?*
G04 #@! TF.SameCoordinates,Original*
G04 #@! TF.FileFunction,Soldermask,Top*
G04 #@! TF.FilePolarity,Negative*
%FSLAX46Y46*%
G04 Gerber Fmt 4.6, Leading zero omitted, Abs format (unit mm)*
G04 Created by KiCad (PCBNEW (5.1.6)-1) date 2020-08-20 16:01:08*
%MOMM*%
%LPD*%
G01*
G04 APERTURE LIST*
%ADD10C,0.100000*%
G04 APERTURE END LIST*
D10*
G36*
X89270104Y-86859585D02*
G01*
X89438626Y-86929389D01*
X89590291Y-87030728D01*
X89719272Y-87159709D01*
X89820611Y-87311374D01*
X89890415Y-87479896D01*
X89926000Y-87658797D01*
X89926000Y-87841203D01*
X89890415Y-88020104D01*
X89820611Y-88188626D01*
X89719272Y-88340291D01*
X89590291Y-88469272D01*
X89438626Y-88570611D01*
X89270104Y-88640415D01*
X89091203Y-88676000D01*
X88908797Y-88676000D01*
X88729896Y-88640415D01*
X88561374Y-88570611D01*
X88409709Y-88469272D01*
X88280728Y-88340291D01*
X88179389Y-88188626D01*
X88109585Y-88020104D01*
X88074000Y-87841203D01*
X88074000Y-87658797D01*
X88109585Y-87479896D01*
X88179389Y-87311374D01*
X88280728Y-87159709D01*
X88409709Y-87030728D01*
X88561374Y-86929389D01*
X88729896Y-86859585D01*
X88908797Y-86824000D01*
X89091203Y-86824000D01*
X89270104Y-86859585D01*
G37*
G36*
X84770104Y-86859585D02*
G01*
X84938626Y-86929389D01*
X85090291Y-87030728D01*
X85219272Y-87159709D01*
X85320611Y-87311374D01*
X85390415Y-87479896D01*
X85426000Y-87658797D01*
X85426000Y-87841203D01*
X85390415Y-88020104D01*
X85320611Y-88188626D01*
X85219272Y-88340291D01*
X85090291Y-88469272D01*
X84938626Y-88570611D01*
X84770104Y-88640415D01*
X84591203Y-88676000D01*
X84408797Y-88676000D01*
X84229896Y-88640415D01*
X84061374Y-88570611D01*
X83909709Y-88469272D01*
X83780728Y-88340291D01*
X83679389Y-88188626D01*
X83609585Y-88020104D01*
X83574000Y-87841203D01*
X83574000Y-87658797D01*
X83609585Y-87479896D01*
X83679389Y-87311374D01*
X83780728Y-87159709D01*
X83909709Y-87030728D01*
X84061374Y-86929389D01*
X84229896Y-86859585D01*
X84408797Y-86824000D01*
X84591203Y-86824000D01*
X84770104Y-86859585D01*
G37*
G36*
X95301000Y-88551000D02*
G01*
X93699000Y-88551000D01*
X93699000Y-86949000D01*
X95301000Y-86949000D01*
X95301000Y-88551000D01*
G37*
G36*
X83454795Y-84180156D02*
G01*
X83561150Y-84201311D01*
X83661334Y-84242809D01*
X83761520Y-84284307D01*
X83941844Y-84404795D01*
X84095205Y-84558156D01*
X84215693Y-84738480D01*
X84298689Y-84938851D01*
X84341000Y-85151560D01*
X84341000Y-85368440D01*
X84298689Y-85581149D01*
X84215693Y-85781520D01*
X84095205Y-85961844D01*
X83941844Y-86115205D01*
X83761520Y-86235693D01*
X83661334Y-86277191D01*
X83561150Y-86318689D01*
X83454795Y-86339844D01*
X83348440Y-86361000D01*
X83131560Y-86361000D01*
X83025205Y-86339844D01*
X82918850Y-86318689D01*
X82718480Y-86235693D01*
X82538156Y-86115205D01*
X82384795Y-85961844D01*
X82264307Y-85781520D01*
X82181311Y-85581149D01*
X82139000Y-85368440D01*
X82139000Y-85151560D01*
X82181311Y-84938851D01*
X82264307Y-84738480D01*
X82384795Y-84558156D01*
X82538156Y-84404795D01*
X82718480Y-84284307D01*
X82918850Y-84201311D01*
X83025205Y-84180156D01*
X83131560Y-84159000D01*
X83348440Y-84159000D01*
X83454795Y-84180156D01*
G37*
G36*
X90464795Y-84180156D02*
G01*
X90571150Y-84201311D01*
X90671334Y-84242809D01*
X90771520Y-84284307D01*
X90951844Y-84404795D01*
X91105205Y-84558156D01*
X91225693Y-84738480D01*
X91308689Y-84938851D01*
X91351000Y-85151560D01*
X91351000Y-85368440D01*
X91308689Y-85581149D01*
X91225693Y-85781520D01*
X91105205Y-85961844D01*
X90951844Y-86115205D01*
X90771520Y-86235693D01*
X90671334Y-86277191D01*
X90571150Y-86318689D01*
X90464795Y-86339844D01*
X90358440Y-86361000D01*
X90141560Y-86361000D01*
X90035205Y-86339844D01*
X89928850Y-86318689D01*
X89728480Y-86235693D01*
X89548156Y-86115205D01*
X89394795Y-85961844D01*
X89274307Y-85781520D01*
X89191311Y-85581149D01*
X89149000Y-85368440D01*
X89149000Y-85151560D01*
X89191311Y-84938851D01*
X89274307Y-84738480D01*
X89394795Y-84558156D01*
X89548156Y-84404795D01*
X89728480Y-84284307D01*
X89928850Y-84201311D01*
X90035205Y-84180156D01*
X90141560Y-84159000D01*
X90358440Y-84159000D01*
X90464795Y-84180156D01*
G37*
G36*
X93551000Y-85801000D02*
G01*
X91949000Y-85801000D01*
X91949000Y-84199000D01*
X93551000Y-84199000D01*
X93551000Y-85801000D01*
G37*
G36*
X96051000Y-85551000D02*
G01*
X94449000Y-85551000D01*
X94449000Y-83949000D01*
X96051000Y-83949000D01*
X96051000Y-85551000D01*
G37*
G36*
X85251000Y-84251000D02*
G01*
X84349000Y-84251000D01*
X84349000Y-83249000D01*
X85251000Y-83249000D01*
X85251000Y-84251000D01*
G37*
G36*
X87151000Y-84251000D02*
G01*
X86249000Y-84251000D01*
X86249000Y-83249000D01*
X87151000Y-83249000D01*
X87151000Y-84251000D01*
G37*
G36*
X92414499Y-81228445D02*
G01*
X92451995Y-81239820D01*
X92486554Y-81258292D01*
X92516847Y-81283153D01*
X92541708Y-81313446D01*
X92560180Y-81348005D01*
X92571555Y-81385501D01*
X92576000Y-81430638D01*
X92576000Y-82069362D01*
X92571555Y-82114499D01*
X92560180Y-82151995D01*
X92541708Y-82186554D01*
X92516847Y-82216847D01*
X92486554Y-82241708D01*
X92451995Y-82260180D01*
X92414499Y-82271555D01*
X92369362Y-82276000D01*
X91630638Y-82276000D01*
X91585501Y-82271555D01*
X91548005Y-82260180D01*
X91513446Y-82241708D01*
X91483153Y-82216847D01*
X91458292Y-82186554D01*
X91439820Y-82151995D01*
X91428445Y-82114499D01*
X91424000Y-82069362D01*
X91424000Y-81430638D01*
X91428445Y-81385501D01*
X91439820Y-81348005D01*
X91458292Y-81313446D01*
X91483153Y-81283153D01*
X91513446Y-81258292D01*
X91548005Y-81239820D01*
X91585501Y-81228445D01*
X91630638Y-81224000D01*
X92369362Y-81224000D01*
X92414499Y-81228445D01*
G37*
G36*
X94164499Y-81228445D02*
G01*
X94201995Y-81239820D01*
X94236554Y-81258292D01*
X94266847Y-81283153D01*
X94291708Y-81313446D01*
X94310180Y-81348005D01*
X94321555Y-81385501D01*
X94326000Y-81430638D01*
X94326000Y-82069362D01*
X94321555Y-82114499D01*
X94310180Y-82151995D01*
X94291708Y-82186554D01*
X94266847Y-82216847D01*
X94236554Y-82241708D01*
X94201995Y-82260180D01*
X94164499Y-82271555D01*
X94119362Y-82276000D01*
X93380638Y-82276000D01*
X93335501Y-82271555D01*
X93298005Y-82260180D01*
X93263446Y-82241708D01*
X93233153Y-82216847D01*
X93208292Y-82186554D01*
X93189820Y-82151995D01*
X93178445Y-82114499D01*
X93174000Y-82069362D01*
X93174000Y-81430638D01*
X93178445Y-81385501D01*
X93189820Y-81348005D01*
X93208292Y-81313446D01*
X93233153Y-81283153D01*
X93263446Y-81258292D01*
X93298005Y-81239820D01*
X93335501Y-81228445D01*
X93380638Y-81224000D01*
X94119362Y-81224000D01*
X94164499Y-81228445D01*
G37*
G36*
X85414499Y-79978445D02*
G01*
X85451995Y-79989820D01*
X85486554Y-80008292D01*
X85516847Y-80033153D01*
X85541708Y-80063446D01*
X85560180Y-80098005D01*
X85571555Y-80135501D01*
X85576000Y-80180638D01*
X85576000Y-80819362D01*
X85571555Y-80864499D01*
X85560180Y-80901995D01*
X85541708Y-80936554D01*
X85516847Y-80966847D01*
X85486554Y-80991708D01*
X85445295Y-81013761D01*
X85424921Y-81027375D01*
X85407593Y-81044701D01*
X85393979Y-81065076D01*
X85384602Y-81087714D01*
X85379821Y-81111748D01*
X85379821Y-81136252D01*
X85384601Y-81160285D01*
X85393978Y-81182924D01*
X85407592Y-81203298D01*
X85424918Y-81220626D01*
X85445293Y-81234240D01*
X85467931Y-81243617D01*
X85491965Y-81248398D01*
X85504218Y-81249000D01*
X86201000Y-81249000D01*
X86201000Y-82251000D01*
X85299000Y-82251000D01*
X85299000Y-81150999D01*
X85296598Y-81126613D01*
X85289485Y-81103164D01*
X85277934Y-81081553D01*
X85262389Y-81062611D01*
X85243447Y-81047066D01*
X85221836Y-81035515D01*
X85198387Y-81028402D01*
X85174001Y-81026000D01*
X84630638Y-81026000D01*
X84585501Y-81021555D01*
X84548005Y-81010180D01*
X84513446Y-80991708D01*
X84483153Y-80966847D01*
X84458292Y-80936554D01*
X84439820Y-80901995D01*
X84428445Y-80864499D01*
X84424000Y-80819362D01*
X84424000Y-80180638D01*
X84428445Y-80135501D01*
X84439820Y-80098005D01*
X84458292Y-80063446D01*
X84483153Y-80033153D01*
X84513446Y-80008292D01*
X84548005Y-79989820D01*
X84585501Y-79978445D01*
X84630638Y-79974000D01*
X85369362Y-79974000D01*
X85414499Y-79978445D01*
G37*
G36*
X83664499Y-79978445D02*
G01*
X83701995Y-79989820D01*
X83736554Y-80008292D01*
X83766847Y-80033153D01*
X83791708Y-80063446D01*
X83810180Y-80098005D01*
X83821555Y-80135501D01*
X83826000Y-80180638D01*
X83826000Y-80819362D01*
X83821555Y-80864499D01*
X83810180Y-80901995D01*
X83791708Y-80936554D01*
X83766847Y-80966847D01*
X83736554Y-80991708D01*
X83701995Y-81010180D01*
X83664499Y-81021555D01*
X83619362Y-81026000D01*
X82880638Y-81026000D01*
X82835501Y-81021555D01*
X82798005Y-81010180D01*
X82763446Y-80991708D01*
X82733153Y-80966847D01*
X82708292Y-80936554D01*
X82689820Y-80901995D01*
X82678445Y-80864499D01*
X82674000Y-80819362D01*
X82674000Y-80180638D01*
X82678445Y-80135501D01*
X82689820Y-80098005D01*
X82708292Y-80063446D01*
X82733153Y-80033153D01*
X82763446Y-80008292D01*
X82798005Y-79989820D01*
X82835501Y-79978445D01*
X82880638Y-79974000D01*
X83619362Y-79974000D01*
X83664499Y-79978445D01*
G37*
G36*
X89709928Y-80056764D02*
G01*
X89731009Y-80063160D01*
X89750445Y-80073548D01*
X89767476Y-80087524D01*
X89781452Y-80104555D01*
X89791840Y-80123991D01*
X89798236Y-80145072D01*
X89801000Y-80173140D01*
X89801000Y-80636860D01*
X89798236Y-80664928D01*
X89791840Y-80686009D01*
X89781452Y-80705445D01*
X89767476Y-80722476D01*
X89750445Y-80736452D01*
X89731009Y-80746840D01*
X89709928Y-80753236D01*
X89681860Y-80756000D01*
X87868140Y-80756000D01*
X87840072Y-80753236D01*
X87818991Y-80746840D01*
X87799555Y-80736452D01*
X87782524Y-80722476D01*
X87768548Y-80705445D01*
X87758160Y-80686009D01*
X87751764Y-80664928D01*
X87749000Y-80636860D01*
X87749000Y-80173140D01*
X87751764Y-80145072D01*
X87758160Y-80123991D01*
X87768548Y-80104555D01*
X87782524Y-80087524D01*
X87799555Y-80073548D01*
X87818991Y-80063160D01*
X87840072Y-80056764D01*
X87868140Y-80054000D01*
X89681860Y-80054000D01*
X89709928Y-80056764D01*
G37*
G36*
X94659928Y-80056764D02*
G01*
X94681009Y-80063160D01*
X94700445Y-80073548D01*
X94717476Y-80087524D01*
X94731452Y-80104555D01*
X94741840Y-80123991D01*
X94748236Y-80145072D01*
X94751000Y-80173140D01*
X94751000Y-80636860D01*
X94748236Y-80664928D01*
X94741840Y-80686009D01*
X94731452Y-80705445D01*
X94717476Y-80722476D01*
X94700445Y-80736452D01*
X94681009Y-80746840D01*
X94659928Y-80753236D01*
X94631860Y-80756000D01*
X92818140Y-80756000D01*
X92790072Y-80753236D01*
X92768991Y-80746840D01*
X92749555Y-80736452D01*
X92732524Y-80722476D01*
X92718548Y-80705445D01*
X92708160Y-80686009D01*
X92701764Y-80664928D01*
X92699000Y-80636860D01*
X92699000Y-80173140D01*
X92701764Y-80145072D01*
X92708160Y-80123991D01*
X92718548Y-80104555D01*
X92732524Y-80087524D01*
X92749555Y-80073548D01*
X92768991Y-80063160D01*
X92790072Y-80056764D01*
X92818140Y-80054000D01*
X94631860Y-80054000D01*
X94659928Y-80056764D01*
G37*
G36*
X85164499Y-78478445D02*
G01*
X85201995Y-78489820D01*
X85236554Y-78508292D01*
X85266847Y-78533153D01*
X85291708Y-78563446D01*
X85310180Y-78598005D01*
X85321555Y-78635501D01*
X85326000Y-78680638D01*
X85326000Y-79319362D01*
X85321555Y-79364499D01*
X85310180Y-79401995D01*
X85291708Y-79436554D01*
X85266847Y-79466847D01*
X85236554Y-79491708D01*
X85201995Y-79510180D01*
X85164499Y-79521555D01*
X85119362Y-79526000D01*
X84380638Y-79526000D01*
X84335501Y-79521555D01*
X84298005Y-79510180D01*
X84263446Y-79491708D01*
X84233153Y-79466847D01*
X84208292Y-79436554D01*
X84189820Y-79401995D01*
X84178445Y-79364499D01*
X84174000Y-79319362D01*
X84174000Y-78680638D01*
X84178445Y-78635501D01*
X84189820Y-78598005D01*
X84208292Y-78563446D01*
X84233153Y-78533153D01*
X84263446Y-78508292D01*
X84298005Y-78489820D01*
X84335501Y-78478445D01*
X84380638Y-78474000D01*
X85119362Y-78474000D01*
X85164499Y-78478445D01*
G37*
G36*
X86914499Y-78478445D02*
G01*
X86951995Y-78489820D01*
X86986554Y-78508292D01*
X87016847Y-78533153D01*
X87041708Y-78563446D01*
X87060180Y-78598005D01*
X87071555Y-78635501D01*
X87076000Y-78680638D01*
X87076000Y-79319362D01*
X87071555Y-79364499D01*
X87060180Y-79401995D01*
X87041708Y-79436554D01*
X87016847Y-79466847D01*
X86986554Y-79491708D01*
X86951995Y-79510180D01*
X86914499Y-79521555D01*
X86869362Y-79526000D01*
X86130638Y-79526000D01*
X86085501Y-79521555D01*
X86048005Y-79510180D01*
X86013446Y-79491708D01*
X85983153Y-79466847D01*
X85958292Y-79436554D01*
X85939820Y-79401995D01*
X85928445Y-79364499D01*
X85924000Y-79319362D01*
X85924000Y-78680638D01*
X85928445Y-78635501D01*
X85939820Y-78598005D01*
X85958292Y-78563446D01*
X85983153Y-78533153D01*
X86013446Y-78508292D01*
X86048005Y-78489820D01*
X86085501Y-78478445D01*
X86130638Y-78474000D01*
X86869362Y-78474000D01*
X86914499Y-78478445D01*
G37*
G36*
X94659928Y-78786764D02*
G01*
X94681009Y-78793160D01*
X94700445Y-78803548D01*
X94717476Y-78817524D01*
X94731452Y-78834555D01*
X94741840Y-78853991D01*
X94748236Y-78875072D01*
X94751000Y-78903140D01*
X94751000Y-79366860D01*
X94748236Y-79394928D01*
X94741840Y-79416009D01*
X94731452Y-79435445D01*
X94717476Y-79452476D01*
X94700445Y-79466452D01*
X94681009Y-79476840D01*
X94659928Y-79483236D01*
X94631860Y-79486000D01*
X92818140Y-79486000D01*
X92790072Y-79483236D01*
X92768991Y-79476840D01*
X92749555Y-79466452D01*
X92732524Y-79452476D01*
X92718548Y-79435445D01*
X92708160Y-79416009D01*
X92701764Y-79394928D01*
X92699000Y-79366860D01*
X92699000Y-78903140D01*
X92701764Y-78875072D01*
X92708160Y-78853991D01*
X92718548Y-78834555D01*
X92732524Y-78817524D01*
X92749555Y-78803548D01*
X92768991Y-78793160D01*
X92790072Y-78786764D01*
X92818140Y-78784000D01*
X94631860Y-78784000D01*
X94659928Y-78786764D01*
G37*
G36*
X89709928Y-78786764D02*
G01*
X89731009Y-78793160D01*
X89750445Y-78803548D01*
X89767476Y-78817524D01*
X89781452Y-78834555D01*
X89791840Y-78853991D01*
X89798236Y-78875072D01*
X89801000Y-78903140D01*
X89801000Y-79366860D01*
X89798236Y-79394928D01*
X89791840Y-79416009D01*
X89781452Y-79435445D01*
X89767476Y-79452476D01*
X89750445Y-79466452D01*
X89731009Y-79476840D01*
X89709928Y-79483236D01*
X89681860Y-79486000D01*
X87868140Y-79486000D01*
X87840072Y-79483236D01*
X87818991Y-79476840D01*
X87799555Y-79466452D01*
X87782524Y-79452476D01*
X87768548Y-79435445D01*
X87758160Y-79416009D01*
X87751764Y-79394928D01*
X87749000Y-79366860D01*
X87749000Y-78903140D01*
X87751764Y-78875072D01*
X87758160Y-78853991D01*
X87768548Y-78834555D01*
X87782524Y-78817524D01*
X87799555Y-78803548D01*
X87818991Y-78793160D01*
X87840072Y-78786764D01*
X87868140Y-78784000D01*
X89681860Y-78784000D01*
X89709928Y-78786764D01*
G37*
G36*
X94659928Y-77516764D02*
G01*
X94681009Y-77523160D01*
X94700445Y-77533548D01*
X94717476Y-77547524D01*
X94731452Y-77564555D01*
X94741840Y-77583991D01*
X94748236Y-77605072D01*
X94751000Y-77633140D01*
X94751000Y-78096860D01*
X94748236Y-78124928D01*
X94741840Y-78146009D01*
X94731452Y-78165445D01*
X94717476Y-78182476D01*
X94700445Y-78196452D01*
X94681009Y-78206840D01*
X94659928Y-78213236D01*
X94631860Y-78216000D01*
X92818140Y-78216000D01*
X92790072Y-78213236D01*
X92768991Y-78206840D01*
X92749555Y-78196452D01*
X92732524Y-78182476D01*
X92718548Y-78165445D01*
X92708160Y-78146009D01*
X92701764Y-78124928D01*
X92699000Y-78096860D01*
X92699000Y-77633140D01*
X92701764Y-77605072D01*
X92708160Y-77583991D01*
X92718548Y-77564555D01*
X92732524Y-77547524D01*
X92749555Y-77533548D01*
X92768991Y-77523160D01*
X92790072Y-77516764D01*
X92818140Y-77514000D01*
X94631860Y-77514000D01*
X94659928Y-77516764D01*
G37*
G36*
X89709928Y-77516764D02*
G01*
X89731009Y-77523160D01*
X89750445Y-77533548D01*
X89767476Y-77547524D01*
X89781452Y-77564555D01*
X89791840Y-77583991D01*
X89798236Y-77605072D01*
X89801000Y-77633140D01*
X89801000Y-78096860D01*
X89798236Y-78124928D01*
X89791840Y-78146009D01*
X89781452Y-78165445D01*
X89767476Y-78182476D01*
X89750445Y-78196452D01*
X89731009Y-78206840D01*
X89709928Y-78213236D01*
X89681860Y-78216000D01*
X87868140Y-78216000D01*
X87840072Y-78213236D01*
X87818991Y-78206840D01*
X87799555Y-78196452D01*
X87782524Y-78182476D01*
X87768548Y-78165445D01*
X87758160Y-78146009D01*
X87751764Y-78124928D01*
X87749000Y-78096860D01*
X87749000Y-77633140D01*
X87751764Y-77605072D01*
X87758160Y-77583991D01*
X87768548Y-77564555D01*
X87782524Y-77547524D01*
X87799555Y-77533548D01*
X87818991Y-77523160D01*
X87840072Y-77516764D01*
X87868140Y-77514000D01*
X89681860Y-77514000D01*
X89709928Y-77516764D01*
G37*
G36*
X83959999Y-76199737D02*
G01*
X83974528Y-76204145D01*
X83987711Y-76209606D01*
X84011745Y-76214388D01*
X84036249Y-76214389D01*
X84060282Y-76209609D01*
X84082921Y-76200232D01*
X84084765Y-76199000D01*
X85316050Y-76199000D01*
X85328164Y-76205475D01*
X85351613Y-76212588D01*
X85375999Y-76214990D01*
X85400385Y-76212588D01*
X85423834Y-76205475D01*
X85428746Y-76203152D01*
X85440001Y-76199737D01*
X85456140Y-76198148D01*
X85993861Y-76198148D01*
X86012199Y-76199954D01*
X86024450Y-76200556D01*
X86042869Y-76200556D01*
X86065149Y-76202750D01*
X86149233Y-76219476D01*
X86170660Y-76225976D01*
X86249858Y-76258780D01*
X86255303Y-76261691D01*
X86255309Y-76261693D01*
X86264169Y-76266429D01*
X86264173Y-76266432D01*
X86269614Y-76269340D01*
X86340899Y-76316971D01*
X86358204Y-76331172D01*
X86418828Y-76391796D01*
X86433029Y-76409101D01*
X86480660Y-76480386D01*
X86483568Y-76485827D01*
X86483571Y-76485831D01*
X86488307Y-76494691D01*
X86488309Y-76494697D01*
X86491220Y-76500142D01*
X86524024Y-76579340D01*
X86530524Y-76600767D01*
X86547250Y-76684851D01*
X86549444Y-76707131D01*
X86549444Y-76725550D01*
X86550046Y-76737801D01*
X86551852Y-76756139D01*
X86551852Y-77243862D01*
X86550046Y-77262199D01*
X86549444Y-77274450D01*
X86549444Y-77292869D01*
X86547250Y-77315149D01*
X86530524Y-77399233D01*
X86524024Y-77420660D01*
X86491220Y-77499858D01*
X86488309Y-77505303D01*
X86488307Y-77505309D01*
X86483571Y-77514169D01*
X86483568Y-77514173D01*
X86480660Y-77519614D01*
X86433029Y-77590899D01*
X86418828Y-77608204D01*
X86358204Y-77668828D01*
X86340899Y-77683029D01*
X86269614Y-77730660D01*
X86264173Y-77733568D01*
X86264169Y-77733571D01*
X86255309Y-77738307D01*
X86255303Y-77738309D01*
X86249858Y-77741220D01*
X86170660Y-77774024D01*
X86149233Y-77780524D01*
X86065149Y-77797250D01*
X86042869Y-77799444D01*
X86024450Y-77799444D01*
X86012199Y-77800046D01*
X85993862Y-77801852D01*
X85456140Y-77801852D01*
X85440001Y-77800263D01*
X85425472Y-77795855D01*
X85412289Y-77790394D01*
X85388255Y-77785612D01*
X85363751Y-77785611D01*
X85339718Y-77790391D01*
X85317079Y-77799768D01*
X85315235Y-77801000D01*
X84083950Y-77801000D01*
X84071836Y-77794525D01*
X84048387Y-77787412D01*
X84024001Y-77785010D01*
X83999615Y-77787412D01*
X83976166Y-77794525D01*
X83971254Y-77796848D01*
X83959999Y-77800263D01*
X83943860Y-77801852D01*
X83406138Y-77801852D01*
X83387801Y-77800046D01*
X83375550Y-77799444D01*
X83357131Y-77799444D01*
X83334851Y-77797250D01*
X83250767Y-77780524D01*
X83229340Y-77774024D01*
X83150142Y-77741220D01*
X83144697Y-77738309D01*
X83144691Y-77738307D01*
X83135831Y-77733571D01*
X83135827Y-77733568D01*
X83130386Y-77730660D01*
X83059101Y-77683029D01*
X83041796Y-77668828D01*
X82981172Y-77608204D01*
X82966971Y-77590899D01*
X82919340Y-77519614D01*
X82916432Y-77514173D01*
X82916429Y-77514169D01*
X82911693Y-77505309D01*
X82911691Y-77505303D01*
X82908780Y-77499858D01*
X82875976Y-77420660D01*
X82869476Y-77399233D01*
X82852750Y-77315149D01*
X82850556Y-77292869D01*
X82850556Y-77274450D01*
X82849954Y-77262199D01*
X82848148Y-77243862D01*
X82848148Y-76756139D01*
X82849954Y-76737801D01*
X82850556Y-76725550D01*
X82850556Y-76707131D01*
X82852750Y-76684851D01*
X82869476Y-76600767D01*
X82875976Y-76579340D01*
X82908780Y-76500142D01*
X82911691Y-76494697D01*
X82911693Y-76494691D01*
X82916429Y-76485831D01*
X82916432Y-76485827D01*
X82919340Y-76480386D01*
X82966971Y-76409101D01*
X82981172Y-76391796D01*
X83041796Y-76331172D01*
X83059101Y-76316971D01*
X83130386Y-76269340D01*
X83135827Y-76266432D01*
X83135831Y-76266429D01*
X83144691Y-76261693D01*
X83144697Y-76261691D01*
X83150142Y-76258780D01*
X83229340Y-76225976D01*
X83250767Y-76219476D01*
X83334851Y-76202750D01*
X83357131Y-76200556D01*
X83375550Y-76200556D01*
X83387801Y-76199954D01*
X83406139Y-76198148D01*
X83943860Y-76198148D01*
X83959999Y-76199737D01*
G37*
G36*
X94659928Y-76246764D02*
G01*
X94681009Y-76253160D01*
X94700445Y-76263548D01*
X94717476Y-76277524D01*
X94731452Y-76294555D01*
X94741840Y-76313991D01*
X94748235Y-76335070D01*
X94751000Y-76363140D01*
X94751000Y-76826860D01*
X94748236Y-76854928D01*
X94741840Y-76876009D01*
X94731452Y-76895445D01*
X94717476Y-76912476D01*
X94700445Y-76926452D01*
X94681009Y-76936840D01*
X94659928Y-76943236D01*
X94631860Y-76946000D01*
X92818140Y-76946000D01*
X92790072Y-76943236D01*
X92768991Y-76936840D01*
X92749555Y-76926452D01*
X92732524Y-76912476D01*
X92718548Y-76895445D01*
X92708160Y-76876009D01*
X92701764Y-76854928D01*
X92699000Y-76826860D01*
X92699000Y-76363140D01*
X92701765Y-76335070D01*
X92708160Y-76313991D01*
X92718548Y-76294555D01*
X92732524Y-76277524D01*
X92749555Y-76263548D01*
X92768991Y-76253160D01*
X92790072Y-76246764D01*
X92818140Y-76244000D01*
X94631860Y-76244000D01*
X94659928Y-76246764D01*
G37*
G36*
X89709928Y-76246764D02*
G01*
X89731009Y-76253160D01*
X89750445Y-76263548D01*
X89767476Y-76277524D01*
X89781452Y-76294555D01*
X89791840Y-76313991D01*
X89798235Y-76335070D01*
X89801000Y-76363140D01*
X89801000Y-76826860D01*
X89798236Y-76854928D01*
X89791840Y-76876009D01*
X89781452Y-76895445D01*
X89767476Y-76912476D01*
X89750445Y-76926452D01*
X89731009Y-76936840D01*
X89709928Y-76943236D01*
X89681860Y-76946000D01*
X87868140Y-76946000D01*
X87840072Y-76943236D01*
X87818991Y-76936840D01*
X87799555Y-76926452D01*
X87782524Y-76912476D01*
X87768548Y-76895445D01*
X87758160Y-76876009D01*
X87751764Y-76854928D01*
X87749000Y-76826860D01*
X87749000Y-76363140D01*
X87751765Y-76335070D01*
X87758160Y-76313991D01*
X87768548Y-76294555D01*
X87782524Y-76277524D01*
X87799555Y-76263548D01*
X87818991Y-76253160D01*
X87840072Y-76246764D01*
X87868140Y-76244000D01*
X89681860Y-76244000D01*
X89709928Y-76246764D01*
G37*
M02*
