G04 #@! TF.GenerationSoftware,KiCad,Pcbnew,(5.1.6)-1*
G04 #@! TF.CreationDate,2020-08-20T16:01:08-07:00*
G04 #@! TF.ProjectId,Momentary-Power-Toggle,4d6f6d65-6e74-4617-9279-2d506f776572,rev?*
G04 #@! TF.SameCoordinates,Original*
G04 #@! TF.FileFunction,Legend,Top*
G04 #@! TF.FilePolarity,Positive*
%FSLAX46Y46*%
G04 Gerber Fmt 4.6, Leading zero omitted, Abs format (unit mm)*
G04 Created by KiCad (PCBNEW (5.1.6)-1) date 2020-08-20 16:01:08*
%MOMM*%
%LPD*%
G01*
G04 APERTURE LIST*
%ADD10C,0.120000*%
%ADD11C,0.150000*%
G04 APERTURE END LIST*
D10*
X90090000Y-86780000D02*
X90090000Y-86550000D01*
X90610000Y-90450000D02*
X82890000Y-90450000D01*
X82890000Y-90450000D02*
X82890000Y-86550000D01*
X90610000Y-83440000D02*
X90090000Y-83440000D01*
X90610000Y-90450000D02*
X90610000Y-86550000D01*
X83410000Y-86780000D02*
X83410000Y-86550000D01*
X90090000Y-83950000D02*
X90090000Y-83440000D01*
X90610000Y-83950000D02*
X90610000Y-83440000D01*
X83950000Y-86780000D02*
X83410000Y-86780000D01*
X83410000Y-83950000D02*
X83410000Y-83440000D01*
X83410000Y-83440000D02*
X82890000Y-83440000D01*
X82890000Y-83950000D02*
X82890000Y-83440000D01*
X90090000Y-86780000D02*
X89550000Y-86780000D01*
X88450000Y-86780000D02*
X85050000Y-86780000D01*
X91250000Y-81060000D02*
X93200000Y-81060000D01*
X91250000Y-81060000D02*
X89300000Y-81060000D01*
X91250000Y-75940000D02*
X93200000Y-75940000D01*
X91250000Y-75940000D02*
X87800000Y-75940000D01*
X82650000Y-77300000D02*
X82650000Y-76700000D01*
X86100000Y-78000000D02*
X83300000Y-78000000D01*
X86750000Y-76700000D02*
X86750000Y-77300000D01*
X83300000Y-76000000D02*
X86100000Y-76000000D01*
X82650000Y-76700000D02*
G75*
G02*
X83350000Y-76000000I700000J0D01*
G01*
X83350000Y-78000000D02*
G75*
G02*
X82650000Y-77300000I0J700000D01*
G01*
X86750000Y-77300000D02*
G75*
G02*
X86050000Y-78000000I-700000J0D01*
G01*
X86050000Y-76000000D02*
G75*
G02*
X86750000Y-76700000I0J-700000D01*
G01*
X91800000Y-84050000D02*
X93700000Y-84050000D01*
X93700000Y-84050000D02*
X93700000Y-85950000D01*
X93700000Y-85950000D02*
X91800000Y-85950000D01*
X91800000Y-85950000D02*
X91800000Y-84050000D01*
X93550000Y-86800000D02*
X95450000Y-86800000D01*
X95450000Y-86800000D02*
X95450000Y-88700000D01*
X95450000Y-88700000D02*
X93550000Y-88700000D01*
X93550000Y-88700000D02*
X93550000Y-86800000D01*
X94300000Y-83800000D02*
X96200000Y-83800000D01*
X96200000Y-83800000D02*
X96200000Y-85700000D01*
X96200000Y-85700000D02*
X94300000Y-85700000D01*
X94300000Y-85700000D02*
X94300000Y-83800000D01*
X87330000Y-81990000D02*
X86400000Y-81990000D01*
X84170000Y-81990000D02*
X85100000Y-81990000D01*
X84170000Y-81990000D02*
X84170000Y-84150000D01*
X87330000Y-81990000D02*
X87330000Y-83450000D01*
X84296267Y-81010000D02*
X83953733Y-81010000D01*
X84296267Y-79990000D02*
X83953733Y-79990000D01*
X93046267Y-82260000D02*
X92703733Y-82260000D01*
X93046267Y-81240000D02*
X92703733Y-81240000D01*
X85796267Y-79510000D02*
X85453733Y-79510000D01*
X85796267Y-78490000D02*
X85453733Y-78490000D01*
D11*
X85416666Y-86474761D02*
X85559523Y-86522380D01*
X85797619Y-86522380D01*
X85892857Y-86474761D01*
X85940476Y-86427142D01*
X85988095Y-86331904D01*
X85988095Y-86236666D01*
X85940476Y-86141428D01*
X85892857Y-86093809D01*
X85797619Y-86046190D01*
X85607142Y-85998571D01*
X85511904Y-85950952D01*
X85464285Y-85903333D01*
X85416666Y-85808095D01*
X85416666Y-85712857D01*
X85464285Y-85617619D01*
X85511904Y-85570000D01*
X85607142Y-85522380D01*
X85845238Y-85522380D01*
X85988095Y-85570000D01*
X86321428Y-85522380D02*
X86559523Y-86522380D01*
X86750000Y-85808095D01*
X86940476Y-86522380D01*
X87178571Y-85522380D01*
X88083333Y-86522380D02*
X87511904Y-86522380D01*
X87797619Y-86522380D02*
X87797619Y-85522380D01*
X87702380Y-85665238D01*
X87607142Y-85760476D01*
X87511904Y-85808095D01*
X91154761Y-77547619D02*
X91059523Y-77500000D01*
X90964285Y-77404761D01*
X90821428Y-77261904D01*
X90726190Y-77214285D01*
X90630952Y-77214285D01*
X90678571Y-77452380D02*
X90583333Y-77404761D01*
X90488095Y-77309523D01*
X90440476Y-77119047D01*
X90440476Y-76785714D01*
X90488095Y-76595238D01*
X90583333Y-76500000D01*
X90678571Y-76452380D01*
X90869047Y-76452380D01*
X90964285Y-76500000D01*
X91059523Y-76595238D01*
X91107142Y-76785714D01*
X91107142Y-77119047D01*
X91059523Y-77309523D01*
X90964285Y-77404761D01*
X90869047Y-77452380D01*
X90678571Y-77452380D01*
X92059523Y-77452380D02*
X91488095Y-77452380D01*
X91773809Y-77452380D02*
X91773809Y-76452380D01*
X91678571Y-76595238D01*
X91583333Y-76690476D01*
X91488095Y-76738095D01*
X83866666Y-74652380D02*
X83866666Y-75366666D01*
X83819047Y-75509523D01*
X83723809Y-75604761D01*
X83580952Y-75652380D01*
X83485714Y-75652380D01*
X84342857Y-75652380D02*
X84342857Y-74652380D01*
X84723809Y-74652380D01*
X84819047Y-74700000D01*
X84866666Y-74747619D01*
X84914285Y-74842857D01*
X84914285Y-74985714D01*
X84866666Y-75080952D01*
X84819047Y-75128571D01*
X84723809Y-75176190D01*
X84342857Y-75176190D01*
X85866666Y-75652380D02*
X85295238Y-75652380D01*
X85580952Y-75652380D02*
X85580952Y-74652380D01*
X85485714Y-74795238D01*
X85390476Y-74890476D01*
X85295238Y-74938095D01*
X82385714Y-77452380D02*
X81814285Y-77452380D01*
X82100000Y-77452380D02*
X82100000Y-76452380D01*
X82004761Y-76595238D01*
X81909523Y-76690476D01*
X81814285Y-76738095D01*
X86966666Y-76452380D02*
X87585714Y-76452380D01*
X87252380Y-76833333D01*
X87395238Y-76833333D01*
X87490476Y-76880952D01*
X87538095Y-76928571D01*
X87585714Y-77023809D01*
X87585714Y-77261904D01*
X87538095Y-77357142D01*
X87490476Y-77404761D01*
X87395238Y-77452380D01*
X87109523Y-77452380D01*
X87014285Y-77404761D01*
X86966666Y-77357142D01*
X91303571Y-83298428D02*
X91410714Y-83334142D01*
X91446428Y-83369857D01*
X91482142Y-83441285D01*
X91482142Y-83548428D01*
X91446428Y-83619857D01*
X91410714Y-83655571D01*
X91339285Y-83691285D01*
X91053571Y-83691285D01*
X91053571Y-82941285D01*
X91303571Y-82941285D01*
X91375000Y-82977000D01*
X91410714Y-83012714D01*
X91446428Y-83084142D01*
X91446428Y-83155571D01*
X91410714Y-83227000D01*
X91375000Y-83262714D01*
X91303571Y-83298428D01*
X91053571Y-83298428D01*
X91696428Y-82941285D02*
X92125000Y-82941285D01*
X91910714Y-83691285D02*
X91910714Y-82941285D01*
X92375000Y-83405571D02*
X92946428Y-83405571D01*
X93935714Y-86521428D02*
X93935714Y-85921428D01*
X94164285Y-85921428D01*
X94221428Y-85950000D01*
X94250000Y-85978571D01*
X94278571Y-86035714D01*
X94278571Y-86121428D01*
X94250000Y-86178571D01*
X94221428Y-86207142D01*
X94164285Y-86235714D01*
X93935714Y-86235714D01*
X94478571Y-85921428D02*
X94621428Y-86521428D01*
X94735714Y-86092857D01*
X94850000Y-86521428D01*
X94992857Y-85921428D01*
X95564285Y-86521428D02*
X95364285Y-86235714D01*
X95221428Y-86521428D02*
X95221428Y-85921428D01*
X95450000Y-85921428D01*
X95507142Y-85950000D01*
X95535714Y-85978571D01*
X95564285Y-86035714D01*
X95564285Y-86121428D01*
X95535714Y-86178571D01*
X95507142Y-86207142D01*
X95450000Y-86235714D01*
X95221428Y-86235714D01*
X95678571Y-86578571D02*
X96135714Y-86578571D01*
X96250000Y-85978571D02*
X96278571Y-85950000D01*
X96335714Y-85921428D01*
X96478571Y-85921428D01*
X96535714Y-85950000D01*
X96564285Y-85978571D01*
X96592857Y-86035714D01*
X96592857Y-86092857D01*
X96564285Y-86178571D01*
X96221428Y-86521428D01*
X96592857Y-86521428D01*
X93921428Y-83373428D02*
X93921428Y-82773428D01*
X94150000Y-82773428D01*
X94207142Y-82802000D01*
X94235714Y-82830571D01*
X94264285Y-82887714D01*
X94264285Y-82973428D01*
X94235714Y-83030571D01*
X94207142Y-83059142D01*
X94150000Y-83087714D01*
X93921428Y-83087714D01*
X94464285Y-82773428D02*
X94607142Y-83373428D01*
X94721428Y-82944857D01*
X94835714Y-83373428D01*
X94978571Y-82773428D01*
X95550000Y-83373428D02*
X95350000Y-83087714D01*
X95207142Y-83373428D02*
X95207142Y-82773428D01*
X95435714Y-82773428D01*
X95492857Y-82802000D01*
X95521428Y-82830571D01*
X95550000Y-82887714D01*
X95550000Y-82973428D01*
X95521428Y-83030571D01*
X95492857Y-83059142D01*
X95435714Y-83087714D01*
X95207142Y-83087714D01*
X95664285Y-83430571D02*
X96121428Y-83430571D01*
X96607142Y-83316285D02*
X96578571Y-83344857D01*
X96492857Y-83373428D01*
X96435714Y-83373428D01*
X96350000Y-83344857D01*
X96292857Y-83287714D01*
X96264285Y-83230571D01*
X96235714Y-83116285D01*
X96235714Y-83030571D01*
X96264285Y-82916285D01*
X96292857Y-82859142D01*
X96350000Y-82802000D01*
X96435714Y-82773428D01*
X96492857Y-82773428D01*
X96578571Y-82802000D01*
X96607142Y-82830571D01*
X88702380Y-83238095D02*
X87702380Y-83238095D01*
X87702380Y-83000000D01*
X87750000Y-82857142D01*
X87845238Y-82761904D01*
X87940476Y-82714285D01*
X88130952Y-82666666D01*
X88273809Y-82666666D01*
X88464285Y-82714285D01*
X88559523Y-82761904D01*
X88654761Y-82857142D01*
X88702380Y-83000000D01*
X88702380Y-83238095D01*
X88702380Y-81714285D02*
X88702380Y-82285714D01*
X88702380Y-82000000D02*
X87702380Y-82000000D01*
X87845238Y-82095238D01*
X87940476Y-82190476D01*
X87988095Y-82285714D01*
X86333333Y-80857142D02*
X86285714Y-80904761D01*
X86142857Y-80952380D01*
X86047619Y-80952380D01*
X85904761Y-80904761D01*
X85809523Y-80809523D01*
X85761904Y-80714285D01*
X85714285Y-80523809D01*
X85714285Y-80380952D01*
X85761904Y-80190476D01*
X85809523Y-80095238D01*
X85904761Y-80000000D01*
X86047619Y-79952380D01*
X86142857Y-79952380D01*
X86285714Y-80000000D01*
X86333333Y-80047619D01*
X86666666Y-79952380D02*
X87285714Y-79952380D01*
X86952380Y-80333333D01*
X87095238Y-80333333D01*
X87190476Y-80380952D01*
X87238095Y-80428571D01*
X87285714Y-80523809D01*
X87285714Y-80761904D01*
X87238095Y-80857142D01*
X87190476Y-80904761D01*
X87095238Y-80952380D01*
X86809523Y-80952380D01*
X86714285Y-80904761D01*
X86666666Y-80857142D01*
X90333333Y-82107142D02*
X90285714Y-82154761D01*
X90142857Y-82202380D01*
X90047619Y-82202380D01*
X89904761Y-82154761D01*
X89809523Y-82059523D01*
X89761904Y-81964285D01*
X89714285Y-81773809D01*
X89714285Y-81630952D01*
X89761904Y-81440476D01*
X89809523Y-81345238D01*
X89904761Y-81250000D01*
X90047619Y-81202380D01*
X90142857Y-81202380D01*
X90285714Y-81250000D01*
X90333333Y-81297619D01*
X90714285Y-81297619D02*
X90761904Y-81250000D01*
X90857142Y-81202380D01*
X91095238Y-81202380D01*
X91190476Y-81250000D01*
X91238095Y-81297619D01*
X91285714Y-81392857D01*
X91285714Y-81488095D01*
X91238095Y-81630952D01*
X90666666Y-82202380D01*
X91285714Y-82202380D01*
X83083333Y-79357142D02*
X83035714Y-79404761D01*
X82892857Y-79452380D01*
X82797619Y-79452380D01*
X82654761Y-79404761D01*
X82559523Y-79309523D01*
X82511904Y-79214285D01*
X82464285Y-79023809D01*
X82464285Y-78880952D01*
X82511904Y-78690476D01*
X82559523Y-78595238D01*
X82654761Y-78500000D01*
X82797619Y-78452380D01*
X82892857Y-78452380D01*
X83035714Y-78500000D01*
X83083333Y-78547619D01*
X84035714Y-79452380D02*
X83464285Y-79452380D01*
X83750000Y-79452380D02*
X83750000Y-78452380D01*
X83654761Y-78595238D01*
X83559523Y-78690476D01*
X83464285Y-78738095D01*
M02*
