G04 #@! TF.GenerationSoftware,KiCad,Pcbnew,(5.1.6)-1*
G04 #@! TF.CreationDate,2020-08-20T16:01:08-07:00*
G04 #@! TF.ProjectId,Momentary-Power-Toggle,4d6f6d65-6e74-4617-9279-2d506f776572,rev?*
G04 #@! TF.SameCoordinates,Original*
G04 #@! TF.FileFunction,Copper,L1,Top*
G04 #@! TF.FilePolarity,Positive*
%FSLAX46Y46*%
G04 Gerber Fmt 4.6, Leading zero omitted, Abs format (unit mm)*
G04 Created by KiCad (PCBNEW (5.1.6)-1) date 2020-08-20 16:01:08*
%MOMM*%
%LPD*%
G01*
G04 APERTURE LIST*
G04 #@! TA.AperFunction,EtchedComponent*
%ADD10C,0.100000*%
G04 #@! TD*
G04 #@! TA.AperFunction,ComponentPad*
%ADD11C,2.100000*%
G04 #@! TD*
G04 #@! TA.AperFunction,ComponentPad*
%ADD12C,1.750000*%
G04 #@! TD*
G04 #@! TA.AperFunction,SMDPad,CuDef*
%ADD13C,0.100000*%
G04 #@! TD*
G04 #@! TA.AperFunction,SMDPad,CuDef*
%ADD14R,1.000000X1.500000*%
G04 #@! TD*
G04 #@! TA.AperFunction,SMDPad,CuDef*
%ADD15R,1.500000X1.500000*%
G04 #@! TD*
G04 #@! TA.AperFunction,SMDPad,CuDef*
%ADD16R,0.800000X0.900000*%
G04 #@! TD*
G04 #@! TA.AperFunction,ViaPad*
%ADD17C,0.800000*%
G04 #@! TD*
G04 #@! TA.AperFunction,Conductor*
%ADD18C,0.250000*%
G04 #@! TD*
G04 #@! TA.AperFunction,Conductor*
%ADD19C,0.254000*%
G04 #@! TD*
G04 APERTURE END LIST*
D10*
G36*
X83800000Y-76400000D02*
G01*
X84300000Y-76400000D01*
X84300000Y-76800000D01*
X83800000Y-76800000D01*
X83800000Y-76400000D01*
G37*
G36*
X83800000Y-77200000D02*
G01*
X84300000Y-77200000D01*
X84300000Y-77600000D01*
X83800000Y-77600000D01*
X83800000Y-77200000D01*
G37*
D11*
X90250000Y-85260000D03*
D12*
X89000000Y-87750000D03*
X84500000Y-87750000D03*
D11*
X83240000Y-85260000D03*
G04 #@! TA.AperFunction,SMDPad,CuDef*
G36*
G01*
X92750000Y-76745000D02*
X92750000Y-76445000D01*
G75*
G02*
X92900000Y-76295000I150000J0D01*
G01*
X94550000Y-76295000D01*
G75*
G02*
X94700000Y-76445000I0J-150000D01*
G01*
X94700000Y-76745000D01*
G75*
G02*
X94550000Y-76895000I-150000J0D01*
G01*
X92900000Y-76895000D01*
G75*
G02*
X92750000Y-76745000I0J150000D01*
G01*
G37*
G04 #@! TD.AperFunction*
G04 #@! TA.AperFunction,SMDPad,CuDef*
G36*
G01*
X92750000Y-78015000D02*
X92750000Y-77715000D01*
G75*
G02*
X92900000Y-77565000I150000J0D01*
G01*
X94550000Y-77565000D01*
G75*
G02*
X94700000Y-77715000I0J-150000D01*
G01*
X94700000Y-78015000D01*
G75*
G02*
X94550000Y-78165000I-150000J0D01*
G01*
X92900000Y-78165000D01*
G75*
G02*
X92750000Y-78015000I0J150000D01*
G01*
G37*
G04 #@! TD.AperFunction*
G04 #@! TA.AperFunction,SMDPad,CuDef*
G36*
G01*
X92750000Y-79285000D02*
X92750000Y-78985000D01*
G75*
G02*
X92900000Y-78835000I150000J0D01*
G01*
X94550000Y-78835000D01*
G75*
G02*
X94700000Y-78985000I0J-150000D01*
G01*
X94700000Y-79285000D01*
G75*
G02*
X94550000Y-79435000I-150000J0D01*
G01*
X92900000Y-79435000D01*
G75*
G02*
X92750000Y-79285000I0J150000D01*
G01*
G37*
G04 #@! TD.AperFunction*
G04 #@! TA.AperFunction,SMDPad,CuDef*
G36*
G01*
X92750000Y-80555000D02*
X92750000Y-80255000D01*
G75*
G02*
X92900000Y-80105000I150000J0D01*
G01*
X94550000Y-80105000D01*
G75*
G02*
X94700000Y-80255000I0J-150000D01*
G01*
X94700000Y-80555000D01*
G75*
G02*
X94550000Y-80705000I-150000J0D01*
G01*
X92900000Y-80705000D01*
G75*
G02*
X92750000Y-80555000I0J150000D01*
G01*
G37*
G04 #@! TD.AperFunction*
G04 #@! TA.AperFunction,SMDPad,CuDef*
G36*
G01*
X87800000Y-80555000D02*
X87800000Y-80255000D01*
G75*
G02*
X87950000Y-80105000I150000J0D01*
G01*
X89600000Y-80105000D01*
G75*
G02*
X89750000Y-80255000I0J-150000D01*
G01*
X89750000Y-80555000D01*
G75*
G02*
X89600000Y-80705000I-150000J0D01*
G01*
X87950000Y-80705000D01*
G75*
G02*
X87800000Y-80555000I0J150000D01*
G01*
G37*
G04 #@! TD.AperFunction*
G04 #@! TA.AperFunction,SMDPad,CuDef*
G36*
G01*
X87800000Y-79285000D02*
X87800000Y-78985000D01*
G75*
G02*
X87950000Y-78835000I150000J0D01*
G01*
X89600000Y-78835000D01*
G75*
G02*
X89750000Y-78985000I0J-150000D01*
G01*
X89750000Y-79285000D01*
G75*
G02*
X89600000Y-79435000I-150000J0D01*
G01*
X87950000Y-79435000D01*
G75*
G02*
X87800000Y-79285000I0J150000D01*
G01*
G37*
G04 #@! TD.AperFunction*
G04 #@! TA.AperFunction,SMDPad,CuDef*
G36*
G01*
X87800000Y-78015000D02*
X87800000Y-77715000D01*
G75*
G02*
X87950000Y-77565000I150000J0D01*
G01*
X89600000Y-77565000D01*
G75*
G02*
X89750000Y-77715000I0J-150000D01*
G01*
X89750000Y-78015000D01*
G75*
G02*
X89600000Y-78165000I-150000J0D01*
G01*
X87950000Y-78165000D01*
G75*
G02*
X87800000Y-78015000I0J150000D01*
G01*
G37*
G04 #@! TD.AperFunction*
G04 #@! TA.AperFunction,SMDPad,CuDef*
G36*
G01*
X87800000Y-76745000D02*
X87800000Y-76445000D01*
G75*
G02*
X87950000Y-76295000I150000J0D01*
G01*
X89600000Y-76295000D01*
G75*
G02*
X89750000Y-76445000I0J-150000D01*
G01*
X89750000Y-76745000D01*
G75*
G02*
X89600000Y-76895000I-150000J0D01*
G01*
X87950000Y-76895000D01*
G75*
G02*
X87800000Y-76745000I0J150000D01*
G01*
G37*
G04 #@! TD.AperFunction*
G04 #@! TA.AperFunction,SMDPad,CuDef*
D13*
G36*
X83950000Y-77750000D02*
G01*
X83400000Y-77750000D01*
X83400000Y-77749398D01*
X83375466Y-77749398D01*
X83326635Y-77744588D01*
X83278510Y-77735016D01*
X83231555Y-77720772D01*
X83186222Y-77701995D01*
X83142949Y-77678864D01*
X83102150Y-77651604D01*
X83064221Y-77620476D01*
X83029524Y-77585779D01*
X82998396Y-77547850D01*
X82971136Y-77507051D01*
X82948005Y-77463778D01*
X82929228Y-77418445D01*
X82914984Y-77371490D01*
X82905412Y-77323365D01*
X82900602Y-77274534D01*
X82900602Y-77250000D01*
X82900000Y-77250000D01*
X82900000Y-76750000D01*
X82900602Y-76750000D01*
X82900602Y-76725466D01*
X82905412Y-76676635D01*
X82914984Y-76628510D01*
X82929228Y-76581555D01*
X82948005Y-76536222D01*
X82971136Y-76492949D01*
X82998396Y-76452150D01*
X83029524Y-76414221D01*
X83064221Y-76379524D01*
X83102150Y-76348396D01*
X83142949Y-76321136D01*
X83186222Y-76298005D01*
X83231555Y-76279228D01*
X83278510Y-76264984D01*
X83326635Y-76255412D01*
X83375466Y-76250602D01*
X83400000Y-76250602D01*
X83400000Y-76250000D01*
X83950000Y-76250000D01*
X83950000Y-77750000D01*
G37*
G04 #@! TD.AperFunction*
D14*
X84700000Y-77000000D03*
G04 #@! TA.AperFunction,SMDPad,CuDef*
D13*
G36*
X86000000Y-76250602D02*
G01*
X86024534Y-76250602D01*
X86073365Y-76255412D01*
X86121490Y-76264984D01*
X86168445Y-76279228D01*
X86213778Y-76298005D01*
X86257051Y-76321136D01*
X86297850Y-76348396D01*
X86335779Y-76379524D01*
X86370476Y-76414221D01*
X86401604Y-76452150D01*
X86428864Y-76492949D01*
X86451995Y-76536222D01*
X86470772Y-76581555D01*
X86485016Y-76628510D01*
X86494588Y-76676635D01*
X86499398Y-76725466D01*
X86499398Y-76750000D01*
X86500000Y-76750000D01*
X86500000Y-77250000D01*
X86499398Y-77250000D01*
X86499398Y-77274534D01*
X86494588Y-77323365D01*
X86485016Y-77371490D01*
X86470772Y-77418445D01*
X86451995Y-77463778D01*
X86428864Y-77507051D01*
X86401604Y-77547850D01*
X86370476Y-77585779D01*
X86335779Y-77620476D01*
X86297850Y-77651604D01*
X86257051Y-77678864D01*
X86213778Y-77701995D01*
X86168445Y-77720772D01*
X86121490Y-77735016D01*
X86073365Y-77744588D01*
X86024534Y-77749398D01*
X86000000Y-77749398D01*
X86000000Y-77750000D01*
X85450000Y-77750000D01*
X85450000Y-76250000D01*
X86000000Y-76250000D01*
X86000000Y-76250602D01*
G37*
G04 #@! TD.AperFunction*
D15*
X92750000Y-85000000D03*
X94500000Y-87750000D03*
X95250000Y-84750000D03*
D16*
X85750000Y-81750000D03*
X86700000Y-83750000D03*
X84800000Y-83750000D03*
G04 #@! TA.AperFunction,SMDPad,CuDef*
G36*
G01*
X83775000Y-80262500D02*
X83775000Y-80737500D01*
G75*
G02*
X83537500Y-80975000I-237500J0D01*
G01*
X82962500Y-80975000D01*
G75*
G02*
X82725000Y-80737500I0J237500D01*
G01*
X82725000Y-80262500D01*
G75*
G02*
X82962500Y-80025000I237500J0D01*
G01*
X83537500Y-80025000D01*
G75*
G02*
X83775000Y-80262500I0J-237500D01*
G01*
G37*
G04 #@! TD.AperFunction*
G04 #@! TA.AperFunction,SMDPad,CuDef*
G36*
G01*
X85525000Y-80262500D02*
X85525000Y-80737500D01*
G75*
G02*
X85287500Y-80975000I-237500J0D01*
G01*
X84712500Y-80975000D01*
G75*
G02*
X84475000Y-80737500I0J237500D01*
G01*
X84475000Y-80262500D01*
G75*
G02*
X84712500Y-80025000I237500J0D01*
G01*
X85287500Y-80025000D01*
G75*
G02*
X85525000Y-80262500I0J-237500D01*
G01*
G37*
G04 #@! TD.AperFunction*
G04 #@! TA.AperFunction,SMDPad,CuDef*
G36*
G01*
X92525000Y-81512500D02*
X92525000Y-81987500D01*
G75*
G02*
X92287500Y-82225000I-237500J0D01*
G01*
X91712500Y-82225000D01*
G75*
G02*
X91475000Y-81987500I0J237500D01*
G01*
X91475000Y-81512500D01*
G75*
G02*
X91712500Y-81275000I237500J0D01*
G01*
X92287500Y-81275000D01*
G75*
G02*
X92525000Y-81512500I0J-237500D01*
G01*
G37*
G04 #@! TD.AperFunction*
G04 #@! TA.AperFunction,SMDPad,CuDef*
G36*
G01*
X94275000Y-81512500D02*
X94275000Y-81987500D01*
G75*
G02*
X94037500Y-82225000I-237500J0D01*
G01*
X93462500Y-82225000D01*
G75*
G02*
X93225000Y-81987500I0J237500D01*
G01*
X93225000Y-81512500D01*
G75*
G02*
X93462500Y-81275000I237500J0D01*
G01*
X94037500Y-81275000D01*
G75*
G02*
X94275000Y-81512500I0J-237500D01*
G01*
G37*
G04 #@! TD.AperFunction*
G04 #@! TA.AperFunction,SMDPad,CuDef*
G36*
G01*
X85275000Y-78762500D02*
X85275000Y-79237500D01*
G75*
G02*
X85037500Y-79475000I-237500J0D01*
G01*
X84462500Y-79475000D01*
G75*
G02*
X84225000Y-79237500I0J237500D01*
G01*
X84225000Y-78762500D01*
G75*
G02*
X84462500Y-78525000I237500J0D01*
G01*
X85037500Y-78525000D01*
G75*
G02*
X85275000Y-78762500I0J-237500D01*
G01*
G37*
G04 #@! TD.AperFunction*
G04 #@! TA.AperFunction,SMDPad,CuDef*
G36*
G01*
X87025000Y-78762500D02*
X87025000Y-79237500D01*
G75*
G02*
X86787500Y-79475000I-237500J0D01*
G01*
X86212500Y-79475000D01*
G75*
G02*
X85975000Y-79237500I0J237500D01*
G01*
X85975000Y-78762500D01*
G75*
G02*
X86212500Y-78525000I237500J0D01*
G01*
X86787500Y-78525000D01*
G75*
G02*
X87025000Y-78762500I0J-237500D01*
G01*
G37*
G04 #@! TD.AperFunction*
D17*
X86000000Y-77000000D03*
X86792693Y-80305260D03*
X91750000Y-80000000D03*
X94000000Y-81750000D03*
X90500000Y-77675021D03*
X83000000Y-82000000D03*
X85500000Y-82800002D03*
X83400000Y-77000000D03*
X91500000Y-77385000D03*
D18*
X86405000Y-76595000D02*
X86000000Y-77000000D01*
X88775000Y-76595000D02*
X86405000Y-76595000D01*
X90000000Y-87750000D02*
X89000000Y-87750000D01*
X92750000Y-85000000D02*
X90000000Y-87750000D01*
X83240000Y-85260000D02*
X90250000Y-85260000D01*
X86500000Y-79000000D02*
X85000000Y-80500000D01*
X88775000Y-80405000D02*
X86892433Y-80405000D01*
X85000000Y-80500000D02*
X86597953Y-80500000D01*
X86892433Y-80405000D02*
X86792693Y-80305260D01*
X86597953Y-80500000D02*
X86792693Y-80305260D01*
X84750000Y-77050000D02*
X84700000Y-77000000D01*
X84750000Y-79000000D02*
X84750000Y-77050000D01*
X92615000Y-79135000D02*
X93725000Y-79135000D01*
X91750000Y-80000000D02*
X92615000Y-79135000D01*
X93630000Y-80500000D02*
X93725000Y-80405000D01*
X92250000Y-80500000D02*
X93630000Y-80500000D01*
X92250000Y-80500000D02*
X91750000Y-80000000D01*
X92000000Y-80250000D02*
X91750000Y-80000000D01*
X92000000Y-81750000D02*
X92000000Y-80250000D01*
X95000000Y-84750000D02*
X92000000Y-81750000D01*
X95250000Y-84750000D02*
X95000000Y-84750000D01*
X88775000Y-77865000D02*
X90310021Y-77865000D01*
X90310021Y-77865000D02*
X90500000Y-77675021D01*
X83000000Y-80750000D02*
X83250000Y-80500000D01*
X83000000Y-82000000D02*
X83000000Y-80750000D01*
X83250000Y-81750000D02*
X83000000Y-82000000D01*
X85750000Y-81750000D02*
X83250000Y-81750000D01*
X85500000Y-83050000D02*
X84800000Y-83750000D01*
X85500000Y-82800002D02*
X85500000Y-83050000D01*
X91500000Y-77385000D02*
X91885000Y-77385000D01*
X92365000Y-77865000D02*
X93725000Y-77865000D01*
X91885000Y-77385000D02*
X92365000Y-77865000D01*
X91500000Y-77385000D02*
X91500000Y-76750000D01*
X91655000Y-76595000D02*
X93725000Y-76595000D01*
X91500000Y-76750000D02*
X91655000Y-76595000D01*
X91500000Y-77950685D02*
X91500000Y-77385000D01*
X90315685Y-79135000D02*
X91500000Y-77950685D01*
X88775000Y-79135000D02*
X90315685Y-79135000D01*
X94700000Y-77865000D02*
X93725000Y-77865000D01*
X96325001Y-79490001D02*
X94700000Y-77865000D01*
X96325001Y-85924999D02*
X96325001Y-79490001D01*
X94500000Y-87750000D02*
X96325001Y-85924999D01*
D19*
G36*
X90715000Y-79898061D02*
G01*
X90715000Y-80101939D01*
X90754774Y-80301898D01*
X90832795Y-80490256D01*
X90946063Y-80659774D01*
X91090226Y-80803937D01*
X91152036Y-80845237D01*
X91093377Y-80893377D01*
X90984488Y-81026058D01*
X90903577Y-81177433D01*
X90853752Y-81341684D01*
X90836928Y-81512500D01*
X90836928Y-81987500D01*
X90853752Y-82158316D01*
X90903577Y-82322567D01*
X90984488Y-82473942D01*
X91093377Y-82606623D01*
X91226058Y-82715512D01*
X91377433Y-82796423D01*
X91541684Y-82846248D01*
X91712500Y-82863072D01*
X92038271Y-82863072D01*
X92912974Y-83737776D01*
X92877000Y-83773750D01*
X92877000Y-84873000D01*
X92897000Y-84873000D01*
X92897000Y-85127000D01*
X92877000Y-85127000D01*
X92877000Y-86226250D01*
X93035750Y-86385000D01*
X93500000Y-86388072D01*
X93618089Y-86376442D01*
X93505820Y-86410498D01*
X93395506Y-86469463D01*
X93298815Y-86548815D01*
X93219463Y-86645506D01*
X93160498Y-86755820D01*
X93124188Y-86875518D01*
X93111928Y-87000000D01*
X93111928Y-88090000D01*
X90471633Y-88090000D01*
X90499855Y-87979474D01*
X90515804Y-87682457D01*
X90473501Y-87388037D01*
X90374572Y-87107526D01*
X90297868Y-86964025D01*
X90248450Y-86948184D01*
X90310617Y-86952066D01*
X90639557Y-86907728D01*
X90953527Y-86800069D01*
X91139661Y-86700579D01*
X91241461Y-86431066D01*
X90250000Y-85439605D01*
X90235858Y-85453748D01*
X90056253Y-85274143D01*
X90070395Y-85260000D01*
X89078934Y-84268539D01*
X88809421Y-84370339D01*
X88663537Y-84668477D01*
X88578620Y-84989346D01*
X88557934Y-85320617D01*
X88602272Y-85649557D01*
X88709931Y-85963527D01*
X88809421Y-86149661D01*
X89049925Y-86240504D01*
X88932457Y-86234196D01*
X88638037Y-86276499D01*
X88357526Y-86375428D01*
X88214025Y-86452132D01*
X88133365Y-86703760D01*
X89000000Y-87570395D01*
X89014143Y-87556253D01*
X89193748Y-87735858D01*
X89179605Y-87750000D01*
X89193748Y-87764143D01*
X89014143Y-87943748D01*
X89000000Y-87929605D01*
X88985858Y-87943748D01*
X88806253Y-87764143D01*
X88820395Y-87750000D01*
X87953760Y-86883365D01*
X87702132Y-86964025D01*
X87573733Y-87232329D01*
X87500145Y-87520526D01*
X87484196Y-87817543D01*
X87523343Y-88090000D01*
X85971952Y-88090000D01*
X86010000Y-87898722D01*
X86010000Y-87601278D01*
X85951971Y-87309549D01*
X85838144Y-87034747D01*
X85672893Y-86787431D01*
X85462569Y-86577107D01*
X85215253Y-86411856D01*
X84940451Y-86298029D01*
X84648722Y-86240000D01*
X84441409Y-86240000D01*
X84680579Y-86149661D01*
X84826463Y-85851523D01*
X84911380Y-85530654D01*
X84932066Y-85199383D01*
X84887728Y-84870443D01*
X84876628Y-84838072D01*
X85200000Y-84838072D01*
X85324482Y-84825812D01*
X85444180Y-84789502D01*
X85554494Y-84730537D01*
X85651185Y-84651185D01*
X85730537Y-84554494D01*
X85750000Y-84518082D01*
X85769463Y-84554494D01*
X85848815Y-84651185D01*
X85945506Y-84730537D01*
X86055820Y-84789502D01*
X86175518Y-84825812D01*
X86300000Y-84838072D01*
X87100000Y-84838072D01*
X87224482Y-84825812D01*
X87344180Y-84789502D01*
X87454494Y-84730537D01*
X87551185Y-84651185D01*
X87630537Y-84554494D01*
X87689502Y-84444180D01*
X87725812Y-84324482D01*
X87738072Y-84200000D01*
X87738072Y-84088934D01*
X89258539Y-84088934D01*
X90250000Y-85080395D01*
X90264143Y-85066253D01*
X90443748Y-85245858D01*
X90429605Y-85260000D01*
X91421066Y-86251461D01*
X91550503Y-86202570D01*
X91645506Y-86280537D01*
X91755820Y-86339502D01*
X91875518Y-86375812D01*
X92000000Y-86388072D01*
X92464250Y-86385000D01*
X92623000Y-86226250D01*
X92623000Y-85127000D01*
X92603000Y-85127000D01*
X92603000Y-84873000D01*
X92623000Y-84873000D01*
X92623000Y-83773750D01*
X92464250Y-83615000D01*
X92000000Y-83611928D01*
X91875518Y-83624188D01*
X91755820Y-83660498D01*
X91645506Y-83719463D01*
X91548815Y-83798815D01*
X91469463Y-83895506D01*
X91410498Y-84005820D01*
X91405595Y-84021985D01*
X91357001Y-83973391D01*
X91241460Y-84088932D01*
X91139661Y-83819421D01*
X90841523Y-83673537D01*
X90520654Y-83588620D01*
X90189383Y-83567934D01*
X89860443Y-83612272D01*
X89546473Y-83719931D01*
X89360339Y-83819421D01*
X89258539Y-84088934D01*
X87738072Y-84088934D01*
X87738072Y-83300000D01*
X87725812Y-83175518D01*
X87689502Y-83055820D01*
X87630537Y-82945506D01*
X87551185Y-82848815D01*
X87454494Y-82769463D01*
X87344180Y-82710498D01*
X87224482Y-82674188D01*
X87100000Y-82661928D01*
X86588095Y-82661928D01*
X86601185Y-82651185D01*
X86680537Y-82554494D01*
X86739502Y-82444180D01*
X86775812Y-82324482D01*
X86788072Y-82200000D01*
X86788072Y-81340260D01*
X86894632Y-81340260D01*
X87094591Y-81300486D01*
X87282949Y-81222465D01*
X87368952Y-81165000D01*
X87457024Y-81165000D01*
X87512171Y-81210258D01*
X87648418Y-81283084D01*
X87796255Y-81327929D01*
X87950000Y-81343072D01*
X89600000Y-81343072D01*
X89753745Y-81327929D01*
X89901582Y-81283084D01*
X90037829Y-81210258D01*
X90157251Y-81112251D01*
X90255258Y-80992829D01*
X90328084Y-80856582D01*
X90372929Y-80708745D01*
X90388072Y-80555000D01*
X90388072Y-80255000D01*
X90372929Y-80101255D01*
X90328084Y-79953418D01*
X90297887Y-79896923D01*
X90315685Y-79898676D01*
X90353007Y-79895000D01*
X90353018Y-79895000D01*
X90464671Y-79884003D01*
X90607932Y-79840546D01*
X90739961Y-79769974D01*
X90740579Y-79769467D01*
X90715000Y-79898061D01*
G37*
X90715000Y-79898061D02*
X90715000Y-80101939D01*
X90754774Y-80301898D01*
X90832795Y-80490256D01*
X90946063Y-80659774D01*
X91090226Y-80803937D01*
X91152036Y-80845237D01*
X91093377Y-80893377D01*
X90984488Y-81026058D01*
X90903577Y-81177433D01*
X90853752Y-81341684D01*
X90836928Y-81512500D01*
X90836928Y-81987500D01*
X90853752Y-82158316D01*
X90903577Y-82322567D01*
X90984488Y-82473942D01*
X91093377Y-82606623D01*
X91226058Y-82715512D01*
X91377433Y-82796423D01*
X91541684Y-82846248D01*
X91712500Y-82863072D01*
X92038271Y-82863072D01*
X92912974Y-83737776D01*
X92877000Y-83773750D01*
X92877000Y-84873000D01*
X92897000Y-84873000D01*
X92897000Y-85127000D01*
X92877000Y-85127000D01*
X92877000Y-86226250D01*
X93035750Y-86385000D01*
X93500000Y-86388072D01*
X93618089Y-86376442D01*
X93505820Y-86410498D01*
X93395506Y-86469463D01*
X93298815Y-86548815D01*
X93219463Y-86645506D01*
X93160498Y-86755820D01*
X93124188Y-86875518D01*
X93111928Y-87000000D01*
X93111928Y-88090000D01*
X90471633Y-88090000D01*
X90499855Y-87979474D01*
X90515804Y-87682457D01*
X90473501Y-87388037D01*
X90374572Y-87107526D01*
X90297868Y-86964025D01*
X90248450Y-86948184D01*
X90310617Y-86952066D01*
X90639557Y-86907728D01*
X90953527Y-86800069D01*
X91139661Y-86700579D01*
X91241461Y-86431066D01*
X90250000Y-85439605D01*
X90235858Y-85453748D01*
X90056253Y-85274143D01*
X90070395Y-85260000D01*
X89078934Y-84268539D01*
X88809421Y-84370339D01*
X88663537Y-84668477D01*
X88578620Y-84989346D01*
X88557934Y-85320617D01*
X88602272Y-85649557D01*
X88709931Y-85963527D01*
X88809421Y-86149661D01*
X89049925Y-86240504D01*
X88932457Y-86234196D01*
X88638037Y-86276499D01*
X88357526Y-86375428D01*
X88214025Y-86452132D01*
X88133365Y-86703760D01*
X89000000Y-87570395D01*
X89014143Y-87556253D01*
X89193748Y-87735858D01*
X89179605Y-87750000D01*
X89193748Y-87764143D01*
X89014143Y-87943748D01*
X89000000Y-87929605D01*
X88985858Y-87943748D01*
X88806253Y-87764143D01*
X88820395Y-87750000D01*
X87953760Y-86883365D01*
X87702132Y-86964025D01*
X87573733Y-87232329D01*
X87500145Y-87520526D01*
X87484196Y-87817543D01*
X87523343Y-88090000D01*
X85971952Y-88090000D01*
X86010000Y-87898722D01*
X86010000Y-87601278D01*
X85951971Y-87309549D01*
X85838144Y-87034747D01*
X85672893Y-86787431D01*
X85462569Y-86577107D01*
X85215253Y-86411856D01*
X84940451Y-86298029D01*
X84648722Y-86240000D01*
X84441409Y-86240000D01*
X84680579Y-86149661D01*
X84826463Y-85851523D01*
X84911380Y-85530654D01*
X84932066Y-85199383D01*
X84887728Y-84870443D01*
X84876628Y-84838072D01*
X85200000Y-84838072D01*
X85324482Y-84825812D01*
X85444180Y-84789502D01*
X85554494Y-84730537D01*
X85651185Y-84651185D01*
X85730537Y-84554494D01*
X85750000Y-84518082D01*
X85769463Y-84554494D01*
X85848815Y-84651185D01*
X85945506Y-84730537D01*
X86055820Y-84789502D01*
X86175518Y-84825812D01*
X86300000Y-84838072D01*
X87100000Y-84838072D01*
X87224482Y-84825812D01*
X87344180Y-84789502D01*
X87454494Y-84730537D01*
X87551185Y-84651185D01*
X87630537Y-84554494D01*
X87689502Y-84444180D01*
X87725812Y-84324482D01*
X87738072Y-84200000D01*
X87738072Y-84088934D01*
X89258539Y-84088934D01*
X90250000Y-85080395D01*
X90264143Y-85066253D01*
X90443748Y-85245858D01*
X90429605Y-85260000D01*
X91421066Y-86251461D01*
X91550503Y-86202570D01*
X91645506Y-86280537D01*
X91755820Y-86339502D01*
X91875518Y-86375812D01*
X92000000Y-86388072D01*
X92464250Y-86385000D01*
X92623000Y-86226250D01*
X92623000Y-85127000D01*
X92603000Y-85127000D01*
X92603000Y-84873000D01*
X92623000Y-84873000D01*
X92623000Y-83773750D01*
X92464250Y-83615000D01*
X92000000Y-83611928D01*
X91875518Y-83624188D01*
X91755820Y-83660498D01*
X91645506Y-83719463D01*
X91548815Y-83798815D01*
X91469463Y-83895506D01*
X91410498Y-84005820D01*
X91405595Y-84021985D01*
X91357001Y-83973391D01*
X91241460Y-84088932D01*
X91139661Y-83819421D01*
X90841523Y-83673537D01*
X90520654Y-83588620D01*
X90189383Y-83567934D01*
X89860443Y-83612272D01*
X89546473Y-83719931D01*
X89360339Y-83819421D01*
X89258539Y-84088934D01*
X87738072Y-84088934D01*
X87738072Y-83300000D01*
X87725812Y-83175518D01*
X87689502Y-83055820D01*
X87630537Y-82945506D01*
X87551185Y-82848815D01*
X87454494Y-82769463D01*
X87344180Y-82710498D01*
X87224482Y-82674188D01*
X87100000Y-82661928D01*
X86588095Y-82661928D01*
X86601185Y-82651185D01*
X86680537Y-82554494D01*
X86739502Y-82444180D01*
X86775812Y-82324482D01*
X86788072Y-82200000D01*
X86788072Y-81340260D01*
X86894632Y-81340260D01*
X87094591Y-81300486D01*
X87282949Y-81222465D01*
X87368952Y-81165000D01*
X87457024Y-81165000D01*
X87512171Y-81210258D01*
X87648418Y-81283084D01*
X87796255Y-81327929D01*
X87950000Y-81343072D01*
X89600000Y-81343072D01*
X89753745Y-81327929D01*
X89901582Y-81283084D01*
X90037829Y-81210258D01*
X90157251Y-81112251D01*
X90255258Y-80992829D01*
X90328084Y-80856582D01*
X90372929Y-80708745D01*
X90388072Y-80555000D01*
X90388072Y-80255000D01*
X90372929Y-80101255D01*
X90328084Y-79953418D01*
X90297887Y-79896923D01*
X90315685Y-79898676D01*
X90353007Y-79895000D01*
X90353018Y-79895000D01*
X90464671Y-79884003D01*
X90607932Y-79840546D01*
X90739961Y-79769974D01*
X90740579Y-79769467D01*
X90715000Y-79898061D01*
G36*
X83433748Y-85245858D02*
G01*
X83419605Y-85260000D01*
X83433748Y-85274143D01*
X83254143Y-85453748D01*
X83240000Y-85439605D01*
X83225858Y-85453748D01*
X83046253Y-85274143D01*
X83060395Y-85260000D01*
X83046253Y-85245858D01*
X83225858Y-85066253D01*
X83240000Y-85080395D01*
X83254143Y-85066253D01*
X83433748Y-85245858D01*
G37*
X83433748Y-85245858D02*
X83419605Y-85260000D01*
X83433748Y-85274143D01*
X83254143Y-85453748D01*
X83240000Y-85439605D01*
X83225858Y-85453748D01*
X83046253Y-85274143D01*
X83060395Y-85260000D01*
X83046253Y-85245858D01*
X83225858Y-85066253D01*
X83240000Y-85080395D01*
X83254143Y-85066253D01*
X83433748Y-85245858D01*
G36*
X87323750Y-76468000D02*
G01*
X88648000Y-76468000D01*
X88648000Y-76448000D01*
X88902000Y-76448000D01*
X88902000Y-76468000D01*
X90226250Y-76468000D01*
X90284250Y-76410000D01*
X90819979Y-76410000D01*
X90794454Y-76457753D01*
X90750997Y-76601014D01*
X90744365Y-76668351D01*
X90601939Y-76640021D01*
X90398061Y-76640021D01*
X90198102Y-76679795D01*
X90096211Y-76722000D01*
X88902000Y-76722000D01*
X88902000Y-76742000D01*
X88648000Y-76742000D01*
X88648000Y-76722000D01*
X87323750Y-76722000D01*
X87165000Y-76880750D01*
X87161928Y-76895000D01*
X87174188Y-77019482D01*
X87210498Y-77139180D01*
X87269463Y-77249494D01*
X87293730Y-77279064D01*
X87221916Y-77413418D01*
X87177071Y-77561255D01*
X87161928Y-77715000D01*
X87161928Y-77974616D01*
X87122567Y-77953577D01*
X86958316Y-77903752D01*
X86787500Y-77886928D01*
X86212500Y-77886928D01*
X86041684Y-77903752D01*
X85877433Y-77953577D01*
X85784715Y-78003135D01*
X85789502Y-77994180D01*
X85825812Y-77874482D01*
X85838072Y-77750000D01*
X85838072Y-76410000D01*
X87265750Y-76410000D01*
X87323750Y-76468000D01*
G37*
X87323750Y-76468000D02*
X88648000Y-76468000D01*
X88648000Y-76448000D01*
X88902000Y-76448000D01*
X88902000Y-76468000D01*
X90226250Y-76468000D01*
X90284250Y-76410000D01*
X90819979Y-76410000D01*
X90794454Y-76457753D01*
X90750997Y-76601014D01*
X90744365Y-76668351D01*
X90601939Y-76640021D01*
X90398061Y-76640021D01*
X90198102Y-76679795D01*
X90096211Y-76722000D01*
X88902000Y-76722000D01*
X88902000Y-76742000D01*
X88648000Y-76742000D01*
X88648000Y-76722000D01*
X87323750Y-76722000D01*
X87165000Y-76880750D01*
X87161928Y-76895000D01*
X87174188Y-77019482D01*
X87210498Y-77139180D01*
X87269463Y-77249494D01*
X87293730Y-77279064D01*
X87221916Y-77413418D01*
X87177071Y-77561255D01*
X87161928Y-77715000D01*
X87161928Y-77974616D01*
X87122567Y-77953577D01*
X86958316Y-77903752D01*
X86787500Y-77886928D01*
X86212500Y-77886928D01*
X86041684Y-77903752D01*
X85877433Y-77953577D01*
X85784715Y-78003135D01*
X85789502Y-77994180D01*
X85825812Y-77874482D01*
X85838072Y-77750000D01*
X85838072Y-76410000D01*
X87265750Y-76410000D01*
X87323750Y-76468000D01*
M02*
