G04 #@! TF.GenerationSoftware,KiCad,Pcbnew,(5.1.6)-1*
G04 #@! TF.CreationDate,2020-08-20T16:01:08-07:00*
G04 #@! TF.ProjectId,Momentary-Power-Toggle,4d6f6d65-6e74-4617-9279-2d506f776572,rev?*
G04 #@! TF.SameCoordinates,Original*
G04 #@! TF.FileFunction,Soldermask,Bot*
G04 #@! TF.FilePolarity,Negative*
%FSLAX46Y46*%
G04 Gerber Fmt 4.6, Leading zero omitted, Abs format (unit mm)*
G04 Created by KiCad (PCBNEW (5.1.6)-1) date 2020-08-20 16:01:08*
%MOMM*%
%LPD*%
G01*
G04 APERTURE LIST*
%ADD10C,0.100000*%
G04 APERTURE END LIST*
D10*
G36*
X84770104Y-86859585D02*
G01*
X84938626Y-86929389D01*
X85090291Y-87030728D01*
X85219272Y-87159709D01*
X85320611Y-87311374D01*
X85390415Y-87479896D01*
X85426000Y-87658797D01*
X85426000Y-87841203D01*
X85390415Y-88020104D01*
X85320611Y-88188626D01*
X85219272Y-88340291D01*
X85090291Y-88469272D01*
X84938626Y-88570611D01*
X84770104Y-88640415D01*
X84591203Y-88676000D01*
X84408797Y-88676000D01*
X84229896Y-88640415D01*
X84061374Y-88570611D01*
X83909709Y-88469272D01*
X83780728Y-88340291D01*
X83679389Y-88188626D01*
X83609585Y-88020104D01*
X83574000Y-87841203D01*
X83574000Y-87658797D01*
X83609585Y-87479896D01*
X83679389Y-87311374D01*
X83780728Y-87159709D01*
X83909709Y-87030728D01*
X84061374Y-86929389D01*
X84229896Y-86859585D01*
X84408797Y-86824000D01*
X84591203Y-86824000D01*
X84770104Y-86859585D01*
G37*
G36*
X89270104Y-86859585D02*
G01*
X89438626Y-86929389D01*
X89590291Y-87030728D01*
X89719272Y-87159709D01*
X89820611Y-87311374D01*
X89890415Y-87479896D01*
X89926000Y-87658797D01*
X89926000Y-87841203D01*
X89890415Y-88020104D01*
X89820611Y-88188626D01*
X89719272Y-88340291D01*
X89590291Y-88469272D01*
X89438626Y-88570611D01*
X89270104Y-88640415D01*
X89091203Y-88676000D01*
X88908797Y-88676000D01*
X88729896Y-88640415D01*
X88561374Y-88570611D01*
X88409709Y-88469272D01*
X88280728Y-88340291D01*
X88179389Y-88188626D01*
X88109585Y-88020104D01*
X88074000Y-87841203D01*
X88074000Y-87658797D01*
X88109585Y-87479896D01*
X88179389Y-87311374D01*
X88280728Y-87159709D01*
X88409709Y-87030728D01*
X88561374Y-86929389D01*
X88729896Y-86859585D01*
X88908797Y-86824000D01*
X89091203Y-86824000D01*
X89270104Y-86859585D01*
G37*
G36*
X90464795Y-84180156D02*
G01*
X90571150Y-84201311D01*
X90671334Y-84242809D01*
X90771520Y-84284307D01*
X90951844Y-84404795D01*
X91105205Y-84558156D01*
X91225693Y-84738480D01*
X91308689Y-84938851D01*
X91351000Y-85151560D01*
X91351000Y-85368440D01*
X91308689Y-85581149D01*
X91225693Y-85781520D01*
X91105205Y-85961844D01*
X90951844Y-86115205D01*
X90771520Y-86235693D01*
X90671334Y-86277191D01*
X90571150Y-86318689D01*
X90464795Y-86339844D01*
X90358440Y-86361000D01*
X90141560Y-86361000D01*
X90035205Y-86339844D01*
X89928850Y-86318689D01*
X89728480Y-86235693D01*
X89548156Y-86115205D01*
X89394795Y-85961844D01*
X89274307Y-85781520D01*
X89191311Y-85581149D01*
X89149000Y-85368440D01*
X89149000Y-85151560D01*
X89191311Y-84938851D01*
X89274307Y-84738480D01*
X89394795Y-84558156D01*
X89548156Y-84404795D01*
X89728480Y-84284307D01*
X89928850Y-84201311D01*
X90035205Y-84180156D01*
X90141560Y-84159000D01*
X90358440Y-84159000D01*
X90464795Y-84180156D01*
G37*
G36*
X83454795Y-84180156D02*
G01*
X83561150Y-84201311D01*
X83661334Y-84242809D01*
X83761520Y-84284307D01*
X83941844Y-84404795D01*
X84095205Y-84558156D01*
X84215693Y-84738480D01*
X84298689Y-84938851D01*
X84341000Y-85151560D01*
X84341000Y-85368440D01*
X84298689Y-85581149D01*
X84215693Y-85781520D01*
X84095205Y-85961844D01*
X83941844Y-86115205D01*
X83761520Y-86235693D01*
X83661334Y-86277191D01*
X83561150Y-86318689D01*
X83454795Y-86339844D01*
X83348440Y-86361000D01*
X83131560Y-86361000D01*
X83025205Y-86339844D01*
X82918850Y-86318689D01*
X82718480Y-86235693D01*
X82538156Y-86115205D01*
X82384795Y-85961844D01*
X82264307Y-85781520D01*
X82181311Y-85581149D01*
X82139000Y-85368440D01*
X82139000Y-85151560D01*
X82181311Y-84938851D01*
X82264307Y-84738480D01*
X82384795Y-84558156D01*
X82538156Y-84404795D01*
X82718480Y-84284307D01*
X82918850Y-84201311D01*
X83025205Y-84180156D01*
X83131560Y-84159000D01*
X83348440Y-84159000D01*
X83454795Y-84180156D01*
G37*
G36*
X94614499Y-81303445D02*
G01*
X94651995Y-81314820D01*
X94686554Y-81333292D01*
X94716847Y-81358153D01*
X94741708Y-81388446D01*
X94760180Y-81423005D01*
X94771555Y-81460501D01*
X94776000Y-81505638D01*
X94776000Y-82244362D01*
X94771555Y-82289499D01*
X94760180Y-82326995D01*
X94741708Y-82361554D01*
X94716847Y-82391847D01*
X94686554Y-82416708D01*
X94651995Y-82435180D01*
X94614499Y-82446555D01*
X94569362Y-82451000D01*
X93930638Y-82451000D01*
X93885501Y-82446555D01*
X93848005Y-82435180D01*
X93813446Y-82416708D01*
X93783153Y-82391847D01*
X93758292Y-82361554D01*
X93739820Y-82326995D01*
X93728445Y-82289499D01*
X93724000Y-82244362D01*
X93724000Y-81505638D01*
X93728445Y-81460501D01*
X93739820Y-81423005D01*
X93758292Y-81388446D01*
X93783153Y-81358153D01*
X93813446Y-81333292D01*
X93848005Y-81314820D01*
X93885501Y-81303445D01*
X93930638Y-81299000D01*
X94569362Y-81299000D01*
X94614499Y-81303445D01*
G37*
G36*
X92114499Y-81178445D02*
G01*
X92151995Y-81189820D01*
X92186554Y-81208292D01*
X92216847Y-81233153D01*
X92241708Y-81263446D01*
X92260180Y-81298005D01*
X92271555Y-81335501D01*
X92276000Y-81380638D01*
X92276000Y-82119362D01*
X92271555Y-82164499D01*
X92260180Y-82201995D01*
X92241708Y-82236554D01*
X92216847Y-82266847D01*
X92186554Y-82291708D01*
X92151995Y-82310180D01*
X92114499Y-82321555D01*
X92069362Y-82326000D01*
X91430638Y-82326000D01*
X91385501Y-82321555D01*
X91348005Y-82310180D01*
X91313446Y-82291708D01*
X91283153Y-82266847D01*
X91258292Y-82236554D01*
X91239820Y-82201995D01*
X91228445Y-82164499D01*
X91224000Y-82119362D01*
X91224000Y-81380638D01*
X91228445Y-81335501D01*
X91239820Y-81298005D01*
X91258292Y-81263446D01*
X91283153Y-81233153D01*
X91313446Y-81208292D01*
X91348005Y-81189820D01*
X91385501Y-81178445D01*
X91430638Y-81174000D01*
X92069362Y-81174000D01*
X92114499Y-81178445D01*
G37*
G36*
X94614499Y-79553445D02*
G01*
X94651995Y-79564820D01*
X94686554Y-79583292D01*
X94716847Y-79608153D01*
X94741708Y-79638446D01*
X94760180Y-79673005D01*
X94771555Y-79710501D01*
X94776000Y-79755638D01*
X94776000Y-80494362D01*
X94771555Y-80539499D01*
X94760180Y-80576995D01*
X94741708Y-80611554D01*
X94716847Y-80641847D01*
X94686554Y-80666708D01*
X94651995Y-80685180D01*
X94614499Y-80696555D01*
X94569362Y-80701000D01*
X93930638Y-80701000D01*
X93885501Y-80696555D01*
X93848005Y-80685180D01*
X93813446Y-80666708D01*
X93783153Y-80641847D01*
X93758292Y-80611554D01*
X93739820Y-80576995D01*
X93728445Y-80539499D01*
X93724000Y-80494362D01*
X93724000Y-79755638D01*
X93728445Y-79710501D01*
X93739820Y-79673005D01*
X93758292Y-79638446D01*
X93783153Y-79608153D01*
X93813446Y-79583292D01*
X93848005Y-79564820D01*
X93885501Y-79553445D01*
X93930638Y-79549000D01*
X94569362Y-79549000D01*
X94614499Y-79553445D01*
G37*
G36*
X92114499Y-79428445D02*
G01*
X92151995Y-79439820D01*
X92186554Y-79458292D01*
X92216847Y-79483153D01*
X92241708Y-79513446D01*
X92260180Y-79548005D01*
X92271555Y-79585501D01*
X92276000Y-79630638D01*
X92276000Y-80369362D01*
X92271555Y-80414499D01*
X92260180Y-80451995D01*
X92241708Y-80486554D01*
X92216847Y-80516847D01*
X92186554Y-80541708D01*
X92151995Y-80560180D01*
X92114499Y-80571555D01*
X92069362Y-80576000D01*
X91430638Y-80576000D01*
X91385501Y-80571555D01*
X91348005Y-80560180D01*
X91313446Y-80541708D01*
X91283153Y-80516847D01*
X91258292Y-80486554D01*
X91239820Y-80451995D01*
X91228445Y-80414499D01*
X91224000Y-80369362D01*
X91224000Y-79630638D01*
X91228445Y-79585501D01*
X91239820Y-79548005D01*
X91258292Y-79513446D01*
X91283153Y-79483153D01*
X91313446Y-79458292D01*
X91348005Y-79439820D01*
X91385501Y-79428445D01*
X91430638Y-79424000D01*
X92069362Y-79424000D01*
X92114499Y-79428445D01*
G37*
G36*
X88114499Y-79178445D02*
G01*
X88151995Y-79189820D01*
X88186554Y-79208292D01*
X88216847Y-79233153D01*
X88241708Y-79263446D01*
X88260180Y-79298005D01*
X88271555Y-79335501D01*
X88276000Y-79380638D01*
X88276000Y-80119362D01*
X88271555Y-80164499D01*
X88260180Y-80201995D01*
X88241708Y-80236554D01*
X88216847Y-80266847D01*
X88186554Y-80291708D01*
X88151995Y-80310180D01*
X88114499Y-80321555D01*
X88069362Y-80326000D01*
X87430638Y-80326000D01*
X87385501Y-80321555D01*
X87348005Y-80310180D01*
X87313446Y-80291708D01*
X87283153Y-80266847D01*
X87258292Y-80236554D01*
X87239820Y-80201995D01*
X87228445Y-80164499D01*
X87224000Y-80119362D01*
X87224000Y-79380638D01*
X87228445Y-79335501D01*
X87239820Y-79298005D01*
X87258292Y-79263446D01*
X87283153Y-79233153D01*
X87313446Y-79208292D01*
X87348005Y-79189820D01*
X87385501Y-79178445D01*
X87430638Y-79174000D01*
X88069362Y-79174000D01*
X88114499Y-79178445D01*
G37*
G36*
X85114499Y-79053445D02*
G01*
X85151995Y-79064820D01*
X85186554Y-79083292D01*
X85216847Y-79108153D01*
X85241708Y-79138446D01*
X85260180Y-79173005D01*
X85271555Y-79210501D01*
X85276000Y-79255638D01*
X85276000Y-79994362D01*
X85271555Y-80039499D01*
X85260180Y-80076995D01*
X85241708Y-80111554D01*
X85216847Y-80141847D01*
X85186554Y-80166708D01*
X85151995Y-80185180D01*
X85114499Y-80196555D01*
X85069362Y-80201000D01*
X84430638Y-80201000D01*
X84385501Y-80196555D01*
X84348005Y-80185180D01*
X84313446Y-80166708D01*
X84283153Y-80141847D01*
X84258292Y-80111554D01*
X84239820Y-80076995D01*
X84228445Y-80039499D01*
X84224000Y-79994362D01*
X84224000Y-79255638D01*
X84228445Y-79210501D01*
X84239820Y-79173005D01*
X84258292Y-79138446D01*
X84283153Y-79108153D01*
X84313446Y-79083292D01*
X84348005Y-79064820D01*
X84385501Y-79053445D01*
X84430638Y-79049000D01*
X85069362Y-79049000D01*
X85114499Y-79053445D01*
G37*
G36*
X88114499Y-77428445D02*
G01*
X88151995Y-77439820D01*
X88186554Y-77458292D01*
X88216847Y-77483153D01*
X88241708Y-77513446D01*
X88260180Y-77548005D01*
X88271555Y-77585501D01*
X88276000Y-77630638D01*
X88276000Y-78369362D01*
X88271555Y-78414499D01*
X88260180Y-78451995D01*
X88241708Y-78486554D01*
X88216847Y-78516847D01*
X88186554Y-78541708D01*
X88151995Y-78560180D01*
X88114499Y-78571555D01*
X88069362Y-78576000D01*
X87430638Y-78576000D01*
X87385501Y-78571555D01*
X87348005Y-78560180D01*
X87313446Y-78541708D01*
X87283153Y-78516847D01*
X87258292Y-78486554D01*
X87239820Y-78451995D01*
X87228445Y-78414499D01*
X87224000Y-78369362D01*
X87224000Y-77630638D01*
X87228445Y-77585501D01*
X87239820Y-77548005D01*
X87258292Y-77513446D01*
X87283153Y-77483153D01*
X87313446Y-77458292D01*
X87348005Y-77439820D01*
X87385501Y-77428445D01*
X87430638Y-77424000D01*
X88069362Y-77424000D01*
X88114499Y-77428445D01*
G37*
G36*
X85114499Y-77303445D02*
G01*
X85151995Y-77314820D01*
X85186554Y-77333292D01*
X85216847Y-77358153D01*
X85241708Y-77388446D01*
X85260180Y-77423005D01*
X85271555Y-77460501D01*
X85276000Y-77505638D01*
X85276000Y-78244362D01*
X85271555Y-78289499D01*
X85260180Y-78326995D01*
X85241708Y-78361554D01*
X85216847Y-78391847D01*
X85186554Y-78416708D01*
X85151995Y-78435180D01*
X85114499Y-78446555D01*
X85069362Y-78451000D01*
X84430638Y-78451000D01*
X84385501Y-78446555D01*
X84348005Y-78435180D01*
X84313446Y-78416708D01*
X84283153Y-78391847D01*
X84258292Y-78361554D01*
X84239820Y-78326995D01*
X84228445Y-78289499D01*
X84224000Y-78244362D01*
X84224000Y-77505638D01*
X84228445Y-77460501D01*
X84239820Y-77423005D01*
X84258292Y-77388446D01*
X84283153Y-77358153D01*
X84313446Y-77333292D01*
X84348005Y-77314820D01*
X84385501Y-77303445D01*
X84430638Y-77299000D01*
X85069362Y-77299000D01*
X85114499Y-77303445D01*
G37*
M02*
